<?xml version="1.0" encoding="utf-8"?>
<!-- Generator: Adobe Illustrator 22.1.0, SVG Export Plug-In . SVG Version: 6.00 Build 0)  -->
<svg version="1.1" id="Layer_1" xmlns="http://www.w3.org/2000/svg" xmlns:xlink="http://www.w3.org/1999/xlink" x="0px" y="0px"
	 viewBox="0 0 771.4 252.2" style="enable-background:new 0 0 771.4 252.2;" xml:space="preserve">
<style type="text/css">
	.st0{fill:#625F5C;}
	.st1{fill:#C1E6EB;}
	.st2{fill:#53514E;}
	.st3{fill:#F1D355;}
	.st4{fill:#160B02;}
</style>
<path class="st0" d="M244.4,99.6h-17.9l4.4-23.9h41.3l14,110.8c22-27.5,39.1-61.9,39.1-79.5c0-6.3-1.9-9.1-6.9-9.1
	c-5.5,0-11.3,3-15.4,5.8l-9.1-17.9c6.6-5.5,19.2-13.2,34.6-13.2c17.9,0,26.7,10.2,26.7,28.9c0,47.3-64.4,150.7-124.9,150.7
	c-16.5,0-28.9-7.7-37.7-17.3l13.5-17c5.2,4.4,13.8,9.6,23.1,9.6c15.4,0,33.8-14.3,50.3-33h-22L244.4,99.6z"/>
<path class="st0" d="M358,143.6c0-36.6,23.4-71,69-71c33.3,0,55.5,18.4,55.5,53.9c0,36.6-23.4,71-69,71
	C380.2,197.5,358,179,358,143.6z M450.1,126.2c0-17.6-6.9-30.3-23.9-30.3c-23.6,0-35.8,24.8-35.8,47.9c0,17.6,6.9,30.3,23.9,30.3
	C438,174.1,450.1,149.3,450.1,126.2z"/>
<path class="st0" d="M488.4,143.6c0-36.6,23.4-71,69-71c33.3,0,55.6,18.4,55.6,53.9c0,36.6-23.4,71-69,71
	C510.7,197.5,488.4,179,488.4,143.6z M580.5,126.2c0-17.6-6.9-30.3-23.9-30.3c-23.6,0-35.8,24.8-35.8,47.9
	c0,17.6,6.9,30.3,23.9,30.3C568.4,174.1,580.5,149.3,580.5,126.2z"/>
<path class="st0" d="M619,160.1l23.9-135.6h-19.8L627.5,0h50.9l-28.6,161.4c-1.6,9.6,1.9,12.6,9.1,12.6c4.1,0,8.5-0.8,12.4-2.2
	l-3.9,22.8c-5.2,1.4-12.4,2.8-19.5,2.8C620.1,197.5,615.7,179,619,160.1z"/>
<path class="st0" d="M673.8,188.9l3.9-22.8c11,4.7,25,8.5,37.9,8.5c16.8,0,22-6.3,22-12.4c0-19.5-53.3-12.4-53.3-50.9
	c0-20.9,15.9-38.8,49.8-38.8c14.3,0,27.5,3.3,37.4,6.9l-3.9,22c-8.5-3.3-20.3-6.6-32.2-6.6c-16,0-20.4,6.1-20.4,11.6
	c0,19,53.4,12.1,53.4,51.4c0,15.1-8,39.6-52.3,39.6C699.9,197.5,685.6,194.2,673.8,188.9z"/>
<g>
	<path class="st1" d="M123.2,125.8c0,0,26.3-141.7-38.4-121.3C20.3,25,123.2,125.8,123.2,125.8z"/>
	<path class="st1" d="M121.6,124.2c0,0-94.7-108.7-118.8-45.4C-21.4,142.1,121.6,124.2,121.6,124.2z"/>
	<path class="st2" d="M110.1,104.4c-0.2-0.4-0.4-0.8-0.5-1.2l-34.8,14.4c1.1,2.7,2.3,5.5,3.6,8.2c10.5,22,25.7,40.8,45.3,56
		c3.5,2.7,7.2,5.3,11,7.8c10.1-4.7,18.7-11.2,25.7-19C138.9,152.2,122,129.9,110.1,104.4z"/>
	<path class="st2" d="M179.9,133c2.1-8.3,3.1-16.9,3.1-25.6c0-12.3-2.1-23-6-32l-29.5,12.2c0.2,0.4,0.4,0.8,0.6,1.2
		C156,105.3,166.7,120.1,179.9,133z"/>
	<path class="st2" d="M36.9,133.2l-12.2,5.1c3.1,33.5,23.5,53.2,54,58.2c-15.8-16-28.6-34.5-38.2-55C39.2,138.7,38,136,36.9,133.2z"
		/>
	<path class="st3" d="M148.1,88.7c-0.2-0.4-0.4-0.8-0.6-1.2l-37.9,15.7c0.2,0.4,0.4,0.8,0.5,1.2c11.9,25.6,28.8,47.8,50.2,66.2
		c9.5-10.6,16-23.6,19.5-37.7C166.7,120.1,156,105.3,148.1,88.7z"/>
	<path class="st3" d="M78.4,125.8c-1.3-2.8-2.5-5.5-3.6-8.2l-37.9,15.7c1.1,2.7,2.3,5.5,3.6,8.2c9.6,20.6,22.4,39,38.2,55
		c5.2,0.9,10.6,1.3,16.4,1.3c15.2,0,28.4-3,39.7-8.2c-3.8-2.5-7.5-5.1-11-7.8C104.2,166.6,88.9,147.7,78.4,125.8z"/>
	<path class="st4" d="M34.8,166.5l-26.7,0.9l19.4-16.7C27.5,150.7,35.5,154.4,34.8,166.5z"/>
</g>
<g>
	<path class="st0" d="M320.2,239.2l-2.3-8.1c-0.3-0.9-0.8-2.9-1.5-6h-0.1c-0.6,2.8-1.1,4.8-1.5,6l-2.3,8.1h-4.1l-4.9-17.4h3.8
		l2.2,8.6c0.5,2.1,0.9,3.9,1.1,5.5h0.1c0.1-0.8,0.3-1.6,0.5-2.6c0.2-1,0.4-1.7,0.6-2.2l2.6-9.2h4.1l2.6,9.2c0.2,0.5,0.4,1.3,0.6,2.4
		c0.2,1.1,0.4,1.9,0.4,2.5h0.1c0.2-1.3,0.5-3.1,1.1-5.4l2.3-8.6h3.7l-4.9,17.4H320.2z"/>
	<path class="st0" d="M339.8,239.5c-2.7,0-4.8-0.8-6.4-2.4c-1.5-1.6-2.3-3.8-2.3-6.5c0-2.8,0.7-5.1,2.1-6.7c1.4-1.6,3.4-2.4,5.8-2.4
		c2.3,0,4.1,0.7,5.5,2.1c1.3,1.4,2,3.3,2,5.8v2H335c0.1,1.7,0.5,3,1.4,3.9c0.9,0.9,2.1,1.4,3.6,1.4c1,0,2-0.1,2.9-0.3
		c0.9-0.2,1.8-0.5,2.9-1v3c-0.9,0.4-1.8,0.7-2.7,0.9C342.1,239.5,341,239.5,339.8,239.5z M339.2,224.3c-1.2,0-2.1,0.4-2.8,1.1
		c-0.7,0.7-1.1,1.8-1.3,3.3h7.9c0-1.4-0.4-2.5-1-3.3C341.3,224.7,340.3,224.3,339.2,224.3z"/>
	<path class="st0" d="M359.7,221.5c2.2,0,3.9,0.8,5.1,2.4c1.2,1.6,1.8,3.8,1.8,6.6c0,2.9-0.6,5.1-1.8,6.7c-1.2,1.6-2.9,2.4-5.1,2.4
		c-2.2,0-3.9-0.8-5.1-2.4h-0.3l-0.7,2.1h-2.8v-24.5h3.7v5.8c0,0.4,0,1.1-0.1,1.9c0,0.8-0.1,1.4-0.1,1.6h0.2
		C355.7,222.4,357.4,221.5,359.7,221.5z M358.8,224.5c-1.5,0-2.6,0.4-3.2,1.3c-0.7,0.9-1,2.3-1,4.4v0.3c0,2.1,0.3,3.6,1,4.6
		c0.7,0.9,1.8,1.4,3.3,1.4c1.3,0,2.3-0.5,3-1.6c0.7-1,1-2.5,1-4.5C362.8,226.5,361.5,224.5,358.8,224.5z"/>
	<path class="st0" d="M376.8,239.5c-2.2,0-3.9-0.8-5.1-2.4c-1.2-1.6-1.8-3.8-1.8-6.6c0-2.9,0.6-5.1,1.8-6.7c1.2-1.6,2.9-2.4,5.1-2.4
		c2.3,0,4,0.8,5.2,2.5h0.2c-0.2-1.2-0.3-2.2-0.3-3v-6.3h3.7v24.5h-2.9l-0.6-2.3H382C380.8,238.7,379.1,239.5,376.8,239.5z
		 M377.8,236.5c1.5,0,2.6-0.4,3.3-1.3c0.7-0.9,1-2.2,1.1-4.2v-0.5c0-2.2-0.4-3.7-1.1-4.7c-0.7-0.9-1.8-1.4-3.4-1.4
		c-1.3,0-2.3,0.5-3,1.6c-0.7,1.1-1.1,2.6-1.1,4.5c0,1.9,0.3,3.4,1,4.4C375.4,236,376.4,236.5,377.8,236.5z"/>
	<path class="st0" d="M398.6,239.5c-2.7,0-4.8-0.8-6.4-2.4c-1.5-1.6-2.3-3.8-2.3-6.5c0-2.8,0.7-5.1,2.1-6.7c1.4-1.6,3.4-2.4,5.8-2.4
		c2.3,0,4.1,0.7,5.4,2.1c1.3,1.4,2,3.3,2,5.8v2h-11.6c0.1,1.7,0.5,3,1.4,3.9c0.9,0.9,2.1,1.4,3.6,1.4c1,0,2-0.1,2.9-0.3
		c0.9-0.2,1.8-0.5,2.9-1v3c-0.9,0.4-1.8,0.7-2.7,0.9C400.9,239.5,399.8,239.5,398.6,239.5z M397.9,224.3c-1.2,0-2.1,0.4-2.8,1.1
		c-0.7,0.7-1.1,1.8-1.3,3.3h7.9c0-1.4-0.4-2.5-1-3.3C400,224.7,399.1,224.3,397.9,224.3z"/>
	<path class="st0" d="M421.3,234.3c0,1.7-0.6,3-1.9,3.9c-1.2,0.9-3,1.4-5.3,1.4c-2.3,0-4.2-0.4-5.6-1.1v-3.2c2,0.9,4,1.4,5.7,1.4
		c2.3,0,3.4-0.7,3.4-2.1c0-0.4-0.1-0.8-0.4-1.1c-0.3-0.3-0.7-0.6-1.2-0.9c-0.6-0.3-1.4-0.7-2.4-1.1c-2-0.8-3.4-1.6-4.1-2.3
		c-0.7-0.8-1.1-1.8-1.1-3c0-1.5,0.6-2.6,1.8-3.5c1.2-0.8,2.8-1.2,4.9-1.2c2,0,4,0.4,5.8,1.2l-1.2,2.8c-1.9-0.8-3.5-1.2-4.7-1.2
		c-2,0-2.9,0.6-2.9,1.7c0,0.5,0.3,1,0.8,1.4c0.5,0.4,1.6,0.9,3.3,1.6c1.4,0.6,2.5,1.1,3.1,1.5c0.6,0.5,1.1,1,1.4,1.6
		C421.1,232.7,421.3,233.4,421.3,234.3z"/>
	<path class="st0" d="M425.1,217.2c0-0.7,0.2-1.2,0.5-1.5c0.4-0.4,0.9-0.5,1.5-0.5c0.7,0,1.2,0.2,1.5,0.5c0.4,0.4,0.5,0.9,0.5,1.5
		c0,0.6-0.2,1.1-0.5,1.5c-0.4,0.4-0.9,0.5-1.5,0.5c-0.7,0-1.2-0.2-1.5-0.5C425.3,218.3,425.1,217.8,425.1,217.2z M429,239.2h-3.7
		v-17.4h3.7V239.2z"/>
	<path class="st0" d="M449,221.8v2l-3,0.5c0.3,0.4,0.5,0.8,0.7,1.4c0.2,0.5,0.3,1.1,0.3,1.7c0,1.8-0.6,3.2-1.9,4.2
		c-1.2,1-2.9,1.5-5.1,1.5c-0.6,0-1.1,0-1.5-0.1c-0.8,0.5-1.2,1.1-1.2,1.7c0,0.4,0.2,0.7,0.6,0.9c0.4,0.2,1.1,0.3,2.1,0.3h3
		c1.9,0,3.4,0.4,4.4,1.2c1,0.8,1.5,2,1.5,3.5c0,2-0.8,3.5-2.4,4.6c-1.6,1.1-4,1.6-7.1,1.6c-2.4,0-4.2-0.4-5.4-1.3
		c-1.2-0.8-1.9-2-1.9-3.6c0-1.1,0.3-2,1-2.7c0.7-0.7,1.6-1.2,2.8-1.5c-0.5-0.2-0.9-0.5-1.2-1c-0.3-0.5-0.5-1-0.5-1.5
		c0-0.7,0.2-1.2,0.5-1.7c0.4-0.5,0.9-0.9,1.6-1.3c-0.9-0.4-1.6-1-2.2-1.9c-0.6-0.9-0.8-1.9-0.8-3.1c0-1.9,0.6-3.4,1.8-4.4
		c1.2-1,2.9-1.6,5.1-1.6c0.5,0,1,0,1.6,0.1c0.5,0.1,0.9,0.1,1.2,0.2H449z M435.3,241.9c0,0.8,0.4,1.4,1.1,1.8c0.7,0.4,1.7,0.6,3,0.6
		c2,0,3.5-0.3,4.5-0.9c1-0.6,1.5-1.3,1.5-2.3c0-0.8-0.3-1.3-0.8-1.6c-0.5-0.3-1.5-0.5-3-0.5h-2.8c-1.1,0-1.9,0.2-2.5,0.7
		C435.6,240.4,435.3,241.1,435.3,241.9z M436.9,227.5c0,1.1,0.3,1.9,0.8,2.5c0.6,0.6,1.4,0.9,2.4,0.9c2.1,0,3.2-1.1,3.2-3.4
		c0-1.1-0.3-2-0.8-2.6c-0.5-0.6-1.3-0.9-2.4-0.9c-1.1,0-1.9,0.3-2.4,0.9C437.2,225.4,436.9,226.3,436.9,227.5z"/>
	<path class="st0" d="M467.5,239.2h-3.7v-10.7c0-1.3-0.3-2.3-0.8-3c-0.5-0.7-1.4-1-2.6-1c-1.6,0-2.7,0.5-3.4,1.4
		c-0.7,0.9-1.1,2.5-1.1,4.6v8.7h-3.7v-17.4h2.9l0.5,2.3h0.2c0.5-0.8,1.3-1.5,2.2-1.9c1-0.5,2-0.7,3.2-0.7c4.2,0,6.3,2.1,6.3,6.4
		V239.2z"/>
	<path class="st0" d="M485,239.2l-6.6-17.4h3.9l3.5,10.1c0.6,1.7,1,3.1,1.1,4.1h0.1c0.1-0.8,0.5-2.1,1.1-4.1l3.5-10.1h3.9l-6.6,17.4
		H485z"/>
	<path class="st0" d="M513.8,230.5c0,2.8-0.7,5.1-2.2,6.7c-1.5,1.6-3.5,2.4-6.1,2.4c-1.6,0-3.1-0.4-4.3-1.1
		c-1.2-0.7-2.2-1.8-2.9-3.2c-0.7-1.4-1-3-1-4.8c0-2.8,0.7-5,2.2-6.6c1.4-1.6,3.5-2.4,6.1-2.4c2.5,0,4.5,0.8,6,2.4
		C513,225.6,513.8,227.7,513.8,230.5z M501.1,230.5c0,4,1.5,6,4.5,6c2.9,0,4.4-2,4.4-6c0-4-1.5-6-4.4-6c-1.6,0-2.7,0.5-3.4,1.5
		C501.5,227.1,501.1,228.6,501.1,230.5z"/>
	<path class="st0" d="M533.5,230.5c0,2.8-0.7,5.1-2.2,6.7c-1.5,1.6-3.5,2.4-6.1,2.4c-1.6,0-3.1-0.4-4.3-1.1
		c-1.3-0.7-2.2-1.8-2.9-3.2c-0.7-1.4-1-3-1-4.8c0-2.8,0.7-5,2.2-6.6c1.4-1.6,3.5-2.4,6.1-2.4c2.5,0,4.5,0.8,6,2.4
		C532.7,225.6,533.5,227.7,533.5,230.5z M520.8,230.5c0,4,1.5,6,4.5,6c2.9,0,4.4-2,4.4-6c0-4-1.5-6-4.4-6c-1.6,0-2.7,0.5-3.4,1.5
		C521.2,227.1,520.8,228.6,520.8,230.5z"/>
	<path class="st0" d="M546.6,221.5c0.7,0,1.4,0.1,1.8,0.2l-0.4,3.4c-0.5-0.1-1.1-0.2-1.6-0.2c-1.5,0-2.7,0.5-3.6,1.4
		c-0.9,1-1.4,2.2-1.4,3.8v9.1h-3.7v-17.4h2.9l0.5,3.1h0.2c0.6-1,1.3-1.9,2.3-2.5C544.5,221.8,545.5,221.5,546.6,221.5z"/>
	<path class="st0" d="M575.5,230.5c0,2.8-0.7,5.1-2.2,6.7c-1.5,1.6-3.5,2.4-6.1,2.4c-1.6,0-3.1-0.4-4.3-1.1
		c-1.2-0.7-2.2-1.8-2.9-3.2c-0.7-1.4-1-3-1-4.8c0-2.8,0.7-5,2.2-6.6c1.4-1.6,3.5-2.4,6.1-2.4c2.5,0,4.5,0.8,6,2.4
		C574.7,225.6,575.5,227.7,575.5,230.5z M562.8,230.5c0,4,1.5,6,4.5,6c2.9,0,4.4-2,4.4-6c0-4-1.5-6-4.4-6c-1.6,0-2.7,0.5-3.4,1.5
		C563.1,227.1,562.8,228.6,562.8,230.5z"/>
	<path class="st0" d="M595.1,239.2h-3.7v-10.7c0-1.3-0.3-2.3-0.8-3c-0.5-0.7-1.4-1-2.6-1c-1.6,0-2.7,0.5-3.4,1.4
		c-0.7,0.9-1.1,2.5-1.1,4.6v8.7h-3.7v-17.4h2.9l0.5,2.3h0.2c0.5-0.8,1.3-1.5,2.2-1.9c1-0.5,2-0.7,3.2-0.7c4.2,0,6.3,2.1,6.3,6.4
		V239.2z"/>
	<path class="st0" d="M606.1,239.5c-2.2,0-3.9-0.8-5.1-2.4c-1.2-1.6-1.8-3.8-1.8-6.6c0-2.9,0.6-5.1,1.9-6.7c1.2-1.6,2.9-2.4,5.1-2.4
		c2.3,0,4,0.8,5.2,2.5h0.2c-0.2-1.2-0.3-2.2-0.3-3v-6.3h3.7v24.5h-2.9l-0.6-2.3h-0.2C610.1,238.7,608.4,239.5,606.1,239.5z
		 M607.1,236.5c1.5,0,2.6-0.4,3.3-1.3c0.7-0.9,1.1-2.2,1.1-4.2v-0.5c0-2.2-0.4-3.7-1.1-4.7c-0.7-0.9-1.8-1.4-3.4-1.4
		c-1.3,0-2.3,0.5-3,1.6c-0.7,1.1-1.1,2.6-1.1,4.5c0,1.9,0.3,3.4,1,4.4C604.7,236,605.7,236.5,607.1,236.5z"/>
	<path class="st0" d="M627.9,239.5c-2.7,0-4.8-0.8-6.4-2.4c-1.5-1.6-2.3-3.8-2.3-6.5c0-2.8,0.7-5.1,2.1-6.7c1.4-1.6,3.4-2.4,5.8-2.4
		c2.3,0,4.1,0.7,5.4,2.1c1.3,1.4,2,3.3,2,5.8v2h-11.6c0.1,1.7,0.5,3,1.4,3.9c0.9,0.9,2.1,1.4,3.6,1.4c1,0,2-0.1,2.9-0.3
		c0.9-0.2,1.8-0.5,2.9-1v3c-0.9,0.4-1.8,0.7-2.7,0.9C630.1,239.5,629.1,239.5,627.9,239.5z M627.2,224.3c-1.2,0-2.1,0.4-2.8,1.1
		c-0.7,0.7-1.1,1.8-1.3,3.3h7.9c0-1.4-0.4-2.5-1-3.3C629.3,224.7,628.4,224.3,627.2,224.3z"/>
	<path class="st0" d="M647.7,221.5c0.7,0,1.4,0.1,1.8,0.2l-0.4,3.4c-0.5-0.1-1.1-0.2-1.6-0.2c-1.5,0-2.7,0.5-3.6,1.4
		c-0.9,1-1.4,2.2-1.4,3.8v9.1h-3.7v-17.4h2.9l0.5,3.1h0.2c0.6-1,1.3-1.9,2.3-2.5C645.6,221.8,646.6,221.5,647.7,221.5z"/>
	<path class="st0" d="M668.1,239.2h-3.7v-10.7c0-1.3-0.3-2.3-0.8-3c-0.5-0.7-1.4-1-2.6-1c-1.6,0-2.7,0.5-3.4,1.4
		c-0.7,0.9-1.1,2.5-1.1,4.6v8.7h-3.7v-17.4h2.9l0.5,2.3h0.2c0.5-0.8,1.3-1.5,2.2-1.9c1-0.5,2-0.7,3.2-0.7c4.2,0,6.3,2.1,6.3,6.4
		V239.2z"/>
	<path class="st0" d="M680.9,239.5c-2.7,0-4.8-0.8-6.4-2.4c-1.5-1.6-2.3-3.8-2.3-6.5c0-2.8,0.7-5.1,2.1-6.7c1.4-1.6,3.4-2.4,5.8-2.4
		c2.3,0,4.1,0.7,5.4,2.1c1.3,1.4,2,3.3,2,5.8v2H676c0.1,1.7,0.5,3,1.4,3.9c0.9,0.9,2.1,1.4,3.6,1.4c1,0,2-0.1,2.9-0.3
		c0.9-0.2,1.8-0.5,2.9-1v3c-0.9,0.4-1.8,0.7-2.7,0.9C683.1,239.5,682.1,239.5,680.9,239.5z M680.2,224.3c-1.2,0-2.1,0.4-2.8,1.1
		c-0.7,0.7-1.1,1.8-1.3,3.3h7.9c0-1.4-0.4-2.5-1-3.3C682.3,224.7,681.4,224.3,680.2,224.3z"/>
	<path class="st0" d="M706.5,239.2h-3.7v-10.7c0-1.3-0.3-2.3-0.8-3c-0.5-0.7-1.3-1-2.4-1c-1.4,0-2.5,0.5-3.1,1.4
		c-0.7,0.9-1,2.5-1,4.6v8.7h-3.7v-17.4h2.9l0.5,2.3h0.2c0.5-0.8,1.2-1.5,2.1-1.9c0.9-0.5,1.9-0.7,3-0.7c2.7,0,4.4,0.9,5.3,2.7h0.3
		c0.5-0.9,1.2-1.5,2.2-2c0.9-0.5,2-0.7,3.2-0.7c2.1,0,3.6,0.5,4.5,1.6c1,1,1.4,2.7,1.4,4.8v11.4h-3.7v-10.7c0-1.3-0.3-2.3-0.8-3
		c-0.5-0.7-1.3-1-2.4-1c-1.4,0-2.5,0.4-3.2,1.3c-0.7,0.9-1,2.3-1,4.1V239.2z"/>
	<path class="st0" d="M730.3,239.5c-2.7,0-4.8-0.8-6.4-2.4c-1.5-1.6-2.3-3.8-2.3-6.5c0-2.8,0.7-5.1,2.1-6.7c1.4-1.6,3.4-2.4,5.8-2.4
		c2.3,0,4.1,0.7,5.5,2.1c1.3,1.4,2,3.3,2,5.8v2h-11.6c0.1,1.7,0.5,3,1.4,3.9c0.9,0.9,2.1,1.4,3.6,1.4c1,0,2-0.1,2.9-0.3
		c0.9-0.2,1.8-0.5,2.9-1v3c-0.9,0.4-1.8,0.7-2.7,0.9C732.5,239.5,731.5,239.5,730.3,239.5z M729.6,224.3c-1.2,0-2.1,0.4-2.8,1.1
		c-0.7,0.7-1.1,1.8-1.3,3.3h7.9c0-1.4-0.4-2.5-1-3.3C731.7,224.7,730.8,224.3,729.6,224.3z"/>
	<path class="st0" d="M750.1,221.5c0.7,0,1.4,0.1,1.8,0.2l-0.4,3.4c-0.5-0.1-1.1-0.2-1.6-0.2c-1.5,0-2.7,0.5-3.6,1.4
		c-0.9,1-1.4,2.2-1.4,3.8v9.1h-3.7v-17.4h2.9l0.5,3.1h0.2c0.6-1,1.3-1.9,2.3-2.5C748,221.8,749,221.5,750.1,221.5z"/>
	<path class="st0" d="M766.9,234.3c0,1.7-0.6,3-1.9,3.9c-1.2,0.9-3,1.4-5.3,1.4c-2.3,0-4.2-0.4-5.6-1.1v-3.2c2,0.9,4,1.4,5.7,1.4
		c2.3,0,3.4-0.7,3.4-2.1c0-0.4-0.1-0.8-0.4-1.1c-0.3-0.3-0.7-0.6-1.2-0.9c-0.6-0.3-1.4-0.7-2.4-1.1c-2-0.8-3.4-1.6-4.1-2.3
		c-0.7-0.8-1.1-1.8-1.1-3c0-1.5,0.6-2.6,1.8-3.5c1.2-0.8,2.8-1.2,4.9-1.2c2,0,4,0.4,5.8,1.2l-1.2,2.8c-1.9-0.8-3.5-1.2-4.7-1.2
		c-2,0-2.9,0.6-2.9,1.7c0,0.5,0.3,1,0.8,1.4c0.5,0.4,1.6,0.9,3.3,1.6c1.4,0.6,2.5,1.1,3.1,1.5c0.7,0.5,1.1,1,1.4,1.6
		C766.7,232.7,766.9,233.4,766.9,234.3z"/>
</g>
</svg>
