<?xml version="1.0" encoding="iso-8859-1"?>
<!-- Generator: Adobe Illustrator 19.0.0, SVG Export Plug-In . SVG Version: 6.00 Build 0)  -->
<svg version="1.1" id="Layer_1" xmlns="http://www.w3.org/2000/svg" xmlns:xlink="http://www.w3.org/1999/xlink" x="0px" y="0px"
	 viewBox="0 0 482.4 482.4" style="enable-background:new 0 0 482.4 482.4;" xml:space="preserve">
<rect x="12.4" y="12" style="fill:#FFFFFF;" width="457.6" height="457.6"/>
<polyline style="fill:#E8EFEE;" points="12.4,12 470,12 470,469.6 "/>
<path style="fill:#B1BCBC;" d="M470,481.6H12.4c-6.4,0-12-5.6-12-12V12c0-6.4,5.6-12,12-12H470c6.4,0,12,5.6,12,12v457.6
	C482,476,476.4,481.6,470,481.6z M24.4,457.6H458V24H24.4V457.6z"/>
<path style="fill:#FFFFFF;" d="M17.2,101.6c-4.8,0-8.8-6.4-8.8-13.6V21.6c0-7.2,4-13.6,8.8-13.6h448c4.8,0,8.8,6.4,8.8,13.6v67.2
	c0,7.2-4,13.6-8.8,13.6h-448V101.6z"/>
<path style="fill:#B1BCBC;" d="M464.4,16c0.8,0.8,1.6,2.4,1.6,5.6v67.2c0,3.2-0.8,4.8-1.6,5.6H18c-0.8-0.8-1.6-2.4-1.6-5.6V21.6
	c0-3.2,0.8-4.8,1.6-5.6H464.4 M465.2,0h-448C7.6,0,0.4,9.6,0.4,21.6v67.2c0,12,7.2,21.6,16.8,21.6h448c9.6,0,16.8-9.6,16.8-21.6
	V21.6C482,9.6,474,0,465.2,0L465.2,0z"/>
<path style="fill:#D9E2E2;" d="M17.2,194.4c-4.8,0-8.8-6.4-8.8-13.6v-67.2c0-7.2,4-13.6,8.8-13.6h448c4.8,0,8.8,6.4,8.8,13.6v67.2
	c0,7.2-4,13.6-8.8,13.6H17.2z"/>
<path style="fill:#B1BCBC;" d="M464.4,108.8c0.8,0.8,1.6,2.4,1.6,5.6v67.2c0,3.2-0.8,4.8-1.6,5.6H18c-0.8-0.8-1.6-2.4-1.6-5.6v-67.2
	c0-3.2,0.8-4.8,1.6-5.6L464.4,108.8 M465.2,92.8h-448c-9.6,0-16.8,9.6-16.8,21.6v67.2c0,12,7.2,21.6,16.8,21.6h448
	c9.6,0,16.8-9.6,16.8-21.6v-67.2C482,102.4,474,92.8,465.2,92.8L465.2,92.8z"/>
<path style="fill:#FFFFFF;" d="M17.2,288c-4.8,0-8.8-6.4-8.8-13.6v-67.2c0-7.2,4-13.6,8.8-13.6h448c4.8,0,8.8,6.4,8.8,13.6v67.2
	c0,7.2-4,13.6-8.8,13.6H17.2z"/>
<path style="fill:#B1BCBC;" d="M464.4,201.6c0.8,0.8,1.6,2.4,1.6,5.6v67.2c0,3.2-0.8,4.8-1.6,5.6H18c-0.8-0.8-1.6-2.4-1.6-5.6v-67.2
	c0-3.2,0.8-4.8,1.6-5.6H464.4 M465.2,185.6h-448c-9.6,0-16.8,9.6-16.8,21.6v67.2c0,12,7.2,21.6,16.8,21.6h448
	c9.6,0,16.8-9.6,16.8-21.6v-67.2C482,195.2,474,185.6,465.2,185.6L465.2,185.6z"/>
<path style="fill:#FFFFFF;" d="M17.2,380.8c-4.8,0-8.8-6.4-8.8-13.6V300c0-7.2,4-13.6,8.8-13.6h448c4.8,0,8.8,6.4,8.8,13.6v67.2
	c0,7.2-4,13.6-8.8,13.6L17.2,380.8L17.2,380.8z"/>
<path style="fill:#B1BCBC;" d="M464.4,295.2c0.8,0.8,1.6,2.4,1.6,5.6V368c0,3.2-0.8,4.8-1.6,5.6H18c-0.8-0.8-1.6-2.4-1.6-5.6v-67.2
	c0-3.2,0.8-4.8,1.6-5.6H464.4 M465.2,279.2h-448c-9.6,0-16.8,9.6-16.8,21.6V368c0,12,7.2,21.6,16.8,21.6h448
	c9.6,0,16.8-9.6,16.8-21.6v-67.2C482,288.8,474,279.2,465.2,279.2L465.2,279.2z"/>
<path style="fill:#FFFFFF;" d="M17.2,473.6c-4.8,0-8.8-6.4-8.8-13.6v-67.2c0-7.2,4-13.6,8.8-13.6h448c4.8,0,8.8,6.4,8.8,13.6V460
	c0,7.2-4,13.6-8.8,13.6L17.2,473.6L17.2,473.6z"/>
<path style="fill:#B1BCBC;" d="M464.4,388c0.8,0.8,1.6,2.4,1.6,5.6v67.2c0,3.2-0.8,4.8-1.6,5.6H18c-0.8-1.6-1.6-3.2-1.6-6.4v-67.2
	c0-3.2,0.8-4.8,1.6-5.6h446.4 M465.2,372h-448c-9.6,0-16.8,9.6-16.8,21.6v67.2c0,12,7.2,21.6,16.8,21.6h448
	c9.6,0,16.8-9.6,16.8-21.6v-67.2C482,381.6,474,372,465.2,372L465.2,372z"/>
<g>
</g>
<g>
</g>
<g>
</g>
<g>
</g>
<g>
</g>
<g>
</g>
<g>
</g>
<g>
</g>
<g>
</g>
<g>
</g>
<g>
</g>
<g>
</g>
<g>
</g>
<g>
</g>
<g>
</g>
</svg>
