<?xml version="1.0" encoding="UTF-8"?>
<svg width="235px" height="218px" viewBox="0 0 235 218" version="1.1" xmlns="http://www.w3.org/2000/svg" xmlns:xlink="http://www.w3.org/1999/xlink">
    <!-- Generator: Sketch 49.3 (51167) - http://www.bohemiancoding.com/sketch -->
    <title>pictures</title>
    <desc>Created with Sketch.</desc>
    <defs>
        <filter x="-62.6%" y="-70.2%" width="225.2%" height="243.9%" filterUnits="objectBoundingBox" id="filter-1">
            <feOffset dx="0" dy="2" in="SourceAlpha" result="shadowOffsetOuter1"></feOffset>
            <feGaussianBlur stdDeviation="27" in="shadowOffsetOuter1" result="shadowBlurOuter1"></feGaussianBlur>
            <feColorMatrix values="0 0 0 0 0   0 0 0 0 0   0 0 0 0 0  0 0 0 0.2 0" type="matrix" in="shadowBlurOuter1" result="shadowMatrixOuter1"></feColorMatrix>
            <feMerge>
                <feMergeNode in="shadowMatrixOuter1"></feMergeNode>
                <feMergeNode in="SourceGraphic"></feMergeNode>
            </feMerge>
        </filter>
    </defs>
    <g id="Page-1" stroke="none" stroke-width="1" fill="none" fill-rule="evenodd">
        <g id="Artboard" transform="translate(-1353.000000, -1679.000000)" fill-rule="nonzero">
            <g id="pictures" filter="url(#filter-1)" transform="translate(1403.000000, 1727.000000)">
                <path d="M4.28953162,26.717085 L103.08497,0.195402234 C106.156227,-0.627030154 109.432321,1.22324696 110.25141,4.30730317 L129.805816,77.1900556 C130.624905,80.2738508 128.78215,83.4607437 125.608215,84.282915 L26.8130366,110.804598 C23.7417795,111.62703 20.4656853,109.776753 19.6465968,106.692697 L0.194608846,33.8099444 C-0.624479686,30.7261492 1.21827455,27.5395174 4.28953162,26.717085 Z" id="Shape" fill="#E4E7E7"></path>
                <path d="M12.3700899,32.1733882 L99.0774927,9.14223412 C101.440253,8.52808734 103.906048,9.96118313 104.625206,12.3153692 L120.857248,72.4014319 C121.473631,74.755618 120.035316,77.212465 117.672556,77.8266118 L30.9648924,100.857766 C28.6021322,101.471913 26.1363372,100.038817 25.4171795,97.6846308 L9.18539808,37.5985681 C8.46624045,35.2441221 9.9045557,32.787535 12.3700899,32.1733882 Z" id="Shape" fill="#208DB2"></path>
                <path d="M22.806922,26 L125.193078,26 C128.453118,26 131,28.6635689 131,31.8393027 L131,108.160697 C131,111.438916 128.351201,114 125.193078,114 L22.806922,114 C19.546882,114 17,111.336431 17,108.160697 L17,31.8395628 C17,28.6635689 19.6487987,26 22.806922,26 Z" id="Shape" fill="#F3F3F3"></path>
                <path d="M29.4869348,34 L118.513065,34 C120.960437,34 123,36.0571652 123,38.5256591 L123,101.474341 C123,103.942835 120.960437,106 118.513065,106 L29.4869348,106 C27.0395629,106 25,103.942835 25,101.474341 L25,38.5256591 C25,36.0571652 26.9375459,34 29.4869348,34 Z" id="Shape" fill="#A3E0F5"></path>
                <path d="M25,38.5691699 L25,60.7922266 C26.0383398,60.8961133 27.0769434,61 28.1152832,61 C41.303623,61 52,50.3038867 52,37.1152832 C52,36.0769434 51.8961133,35.0383398 51.7922266,34 L29.5691699,34 C26.9730566,34 25,36.0769434 25,38.5691699 Z" id="Shape" fill="#EFC75E"></path>
                <path d="M32.4921423,84 C29.9264008,84 27.3606594,84.2000798 25,84.4999456 L25,100.600022 C25,102.999964 27.0526453,105 29.5157154,105 L63.6919859,105 C63.8973286,104.099895 64,103.300083 64,102.399978 C63.9997394,92.199971 49.939497,84 32.4921423,84 Z" id="Shape" fill="#3DB39E"></path>
                <path d="M103.449226,75 C75.254999,75 52.3085548,88.8465477 52,106 L118.472527,106 C120.94201,106 123,103.933316 123,101.4534 L123,77.3768048 C116.928969,75.9300997 110.343506,75 103.449226,75 Z" id="Shape" fill="#4BC2AD"></path>
            </g>
        </g>
    </g>
</svg>