<?xml version="1.0" encoding="UTF-8"?>
<svg width="216px" height="220px" viewBox="0 0 216 220" version="1.1" xmlns="http://www.w3.org/2000/svg" xmlns:xlink="http://www.w3.org/1999/xlink">
    <!-- Generator: Sketch 49.3 (51167) - http://www.bohemiancoding.com/sketch -->
    <title>rewind-time</title>
    <desc>Created with Sketch.</desc>
    <defs>
        <filter x="-69.5%" y="-67.8%" width="239.0%" height="239.0%" filterUnits="objectBoundingBox" id="filter-1">
            <feOffset dx="0" dy="2" in="SourceAlpha" result="shadowOffsetOuter1"></feOffset>
            <feGaussianBlur stdDeviation="27" in="shadowOffsetOuter1" result="shadowBlurOuter1"></feGaussianBlur>
            <feColorMatrix values="0 0 0 0 0   0 0 0 0 0   0 0 0 0 0  0 0 0 0.2 0" type="matrix" in="shadowBlurOuter1" result="shadowMatrixOuter1"></feColorMatrix>
            <feMerge>
                <feMergeNode in="shadowMatrixOuter1"></feMergeNode>
                <feMergeNode in="SourceGraphic"></feMergeNode>
            </feMerge>
        </filter>
    </defs>
    <g id="Page-1" stroke="none" stroke-width="1" fill="none" fill-rule="evenodd">
        <g id="Artboard" transform="translate(-1362.000000, -1677.000000)" fill-rule="nonzero">
            <g id="rewind-time" filter="url(#filter-1)" transform="translate(1409.000000, 1727.000000)">
                <path d="M58.9705,100.3 C36.1984667,100.3 17.6705,81.7720333 17.6705,59 C17.6705,36.2279667 36.1984667,17.7 58.9705,17.7 C81.7425333,17.7 100.2705,36.2279667 100.2705,59 C100.2705,81.7720333 81.7445,100.3 58.9705,100.3" id="XMLID_148_" fill="#FAFAFA"></path>
                <path d="M58.9705,29.5 C57.8849,29.5 57.0038333,28.6209 57.0038333,27.5333333 L57.0038333,23.6 C57.0038333,22.5124333 57.8849,21.6333333 58.9705,21.6333333 C60.0561,21.6333333 60.9371667,22.5124333 60.9371667,23.6 L60.9371667,27.5333333 C60.9371667,28.6209 60.0561,29.5 58.9705,29.5" id="XMLID_147_" fill="#BFBFBF"></path>
                <path d="M58.9705,96.3666667 C57.8849,96.3666667 57.0038333,95.4875667 57.0038333,94.4 L57.0038333,90.4666667 C57.0038333,89.3791 57.8849,88.5 58.9705,88.5 C60.0561,88.5 60.9371667,89.3791 60.9371667,90.4666667 L60.9371667,94.4 C60.9371667,95.4875667 60.0561,96.3666667 58.9705,96.3666667" id="XMLID_146_" fill="#BFBFBF"></path>
                <path d="M94.3705,60.9666667 L90.4371667,60.9666667 C89.3515667,60.9666667 88.4705,60.0875667 88.4705,59 C88.4705,57.9124333 89.3515667,57.0333333 90.4371667,57.0333333 L94.3705,57.0333333 C95.4561,57.0333333 96.3371667,57.9124333 96.3371667,59 C96.3371667,60.0875667 95.4561,60.9666667 94.3705,60.9666667" id="XMLID_145_" fill="#BFBFBF"></path>
                <path d="M27.5038333,60.9666667 L23.5705,60.9666667 C22.4849,60.9666667 21.6038333,60.0875667 21.6038333,59 C21.6038333,57.9124333 22.4849,57.0333333 23.5705,57.0333333 L27.5038333,57.0333333 C28.5894333,57.0333333 29.4705,57.9124333 29.4705,59 C29.4705,60.0875667 28.5894333,60.9666667 27.5038333,60.9666667" id="XMLID_144_" fill="#BFBFBF"></path>
                <path d="M58.9705,64.9 C54.6320333,64.9 51.1038333,61.3718 51.1038333,57.0333333 C51.1038333,52.6948667 54.6320333,49.1666667 58.9705,49.1666667 C63.3089667,49.1666667 66.8371667,52.6948667 66.8371667,57.0333333 C66.8371667,61.3718 63.3109333,64.9 58.9705,64.9 M58.9705,53.1 C56.8012667,53.1 55.0371667,54.8641 55.0371667,57.0333333 C55.0371667,59.2025667 56.8012667,60.9666667 58.9705,60.9666667 C61.1397333,60.9666667 62.9038333,59.2025667 62.9038333,57.0333333 C62.9038333,54.8641 61.1397333,53.1 58.9705,53.1" id="XMLID_141_" fill="#BFBFBF"></path>
                <path d="M58.9705,53.1 C57.8849,53.1 57.0038333,52.2209 57.0038333,51.1333333 L57.0038333,39.3333333 C57.0038333,38.2457667 57.8849,37.3666667 58.9705,37.3666667 C60.0561,37.3666667 60.9371667,38.2457667 60.9371667,39.3333333 L60.9371667,51.1333333 C60.9371667,52.2209 60.0561,53.1 58.9705,53.1" id="XMLID_140_" fill="#BFBFBF"></path>
                <path d="M37.3371667,80.6333333 C36.8337,80.6333333 36.3302333,80.4406 35.9467333,80.0571 C35.1777667,79.2881333 35.1777667,78.0452 35.9467333,77.2762333 L53.4087667,59.8142 C54.1777333,59.0452333 55.4206667,59.0452333 56.1896333,59.8142 C56.9586,60.5831667 56.9586,61.8261 56.1896333,62.5950667 L38.7276,80.0571 C38.3460667,80.4406 37.8406333,80.6333333 37.3371667,80.6333333" id="XMLID_139_" fill="#FFFFFF"></path>
                <path d="M116.003833,60.9666667 C114.918233,60.9666667 114.037167,60.0875667 114.037167,59 C114.037167,28.6366333 89.3338667,3.93333333 58.9705,3.93333333 C44.7770667,3.93333333 31.2896667,9.34166667 20.9941667,19.1592667 C20.2094667,19.9085667 18.9626,19.8790667 18.2133,19.0943667 C17.464,18.3077 17.4935,17.0628 18.2801667,16.3135 C29.3112,5.7938 43.7642333,0 58.9705,0 C91.5031,0 117.9705,26.4674 117.9705,59 C117.9705,60.0875667 117.089433,60.9666667 116.003833,60.9666667" id="XMLID_138_" fill="#536DFE"></path>
                <path d="M35.3705,19.6666667 L17.6705,19.6666667 L17.6705,1.96666667 C17.6705,0.8791 18.5515667,0 19.6371667,0 C20.7227667,0 21.6038333,0.8791 21.6038333,1.96666667 L21.6038333,15.7333333 L35.3705,15.7333333 C36.4561,15.7333333 37.3371667,16.6124333 37.3371667,17.7 C37.3371667,18.7875667 36.4561,19.6666667 35.3705,19.6666667" id="XMLID_137_" fill="#536DFE"></path>
                <path d="M58.1071333,116.053 C58.0874667,114.971333 58.9528,114.066667 60.0344667,114.047 C61.1161333,114.025367 62.0208,114.892667 62.0404667,115.974333 C62.0601333,117.075667 61.1948,117.9587 60.1131333,117.980333 L60.0738,117.980333 C59.0098333,117.980333 58.1248333,117.134667 58.1071333,116.053 Z M54.0145,117.783667 L54.0145,117.801367 C52.9328333,117.705 52.1265,116.761 52.2248333,115.659667 C52.3035,114.578 53.2671667,113.771667 54.3488333,113.868033 C55.4305,113.968333 56.2171667,114.912333 56.1385,115.992033 C56.0598333,117.016667 55.1945,117.801367 54.1718333,117.801367 C54.1325,117.801367 54.0735,117.801367 54.0145,117.783667 Z M64.0071333,115.8347 C63.8694667,114.7727 64.6364667,113.789367 65.7181333,113.653667 C66.7998,113.516 67.7831333,114.281033 67.9011333,115.364667 C68.0388,116.446333 67.2718,117.429667 66.1901333,117.567333 L66.1901333,117.547667 C66.1114667,117.567333 66.0328,117.567333 65.9541333,117.567333 C64.9688333,117.567333 64.1251333,116.839667 64.0071333,115.8347 Z M47.9788,116.975367 C46.8971333,116.761 46.2088,115.738333 46.4054667,114.676333 C46.6021333,113.594667 47.6444667,112.906333 48.7064667,113.103 C49.7684667,113.2977 50.4764667,114.342 50.2798,115.404 C50.0831333,116.348 49.2571333,116.997 48.3328,116.997 C48.2128333,116.997 48.0968,116.997 47.9788,116.975367 Z M69.8461667,115.030333 C69.5905,113.968333 70.2591667,112.906333 71.3211667,112.670333 C72.3831667,112.434333 73.4255,113.083333 73.6811667,114.145333 C73.9171667,115.207333 73.2485,116.269333 72.2061667,116.505333 C72.0488333,116.544667 71.9111667,116.544667 71.7538333,116.544667 C70.8688333,116.544667 70.0428333,115.935 69.8461667,115.030333 Z M42.0394667,115.522 C40.9971333,115.207333 40.4268,114.106 40.7218,113.063667 C41.0364667,112.041 42.1378,111.451 43.1801333,111.765667 C44.2224667,112.0587 44.8124667,113.162 44.4978,114.202367 C44.2421333,115.05 43.4554667,115.600667 42.6098,115.600667 C42.4308333,115.600667 42.2361333,115.581 42.0394667,115.522 Z M75.5691667,113.614333 C75.2151667,112.572 75.7658333,111.451 76.7885,111.116667 C77.8111667,110.7607 78.9321667,111.293667 79.2861667,112.336 C79.6401667,113.358667 79.0895,114.479667 78.0668333,114.833667 C77.8505,114.892667 77.6341667,114.930033 77.4178333,114.930033 C76.6134667,114.930033 75.8464667,114.420667 75.5691667,113.614333 Z M36.2968,113.476667 C35.2938,113.042033 34.8218,111.901367 35.2544667,110.900333 C35.6674667,109.897333 36.8081333,109.425333 37.8111333,109.838333 C38.8141333,110.251333 39.2861333,111.4097 38.8731333,112.414667 C38.5584667,113.162 37.8308,113.614333 37.0638,113.614333 C36.8061667,113.614333 36.5524667,113.575 36.2968,113.476667 Z M81.1151667,111.588667 C80.6628333,110.605333 81.0758333,109.443033 82.0788333,108.992667 C83.0621667,108.520667 84.2225,108.951367 84.6748333,109.9347 C85.1468333,110.918033 84.7141667,112.1 83.7308333,112.550367 C83.4555,112.670333 83.1801667,112.727367 82.9048333,112.727367 C82.1575,112.727367 81.4514667,112.314367 81.1151667,111.588667 Z M30.8098,110.821667 C29.8461333,110.310333 29.4921333,109.1087 30.0034667,108.166667 C30.5344667,107.203 31.7341333,106.849 32.6781333,107.38 C33.6418,107.889367 33.9958,109.091 33.4648,110.035 C33.1108,110.703667 32.4421333,111.075367 31.7341333,111.075367 C31.4194667,111.075367 31.1048,110.9967 30.8098,110.821667 Z M86.4251667,109.012333 C85.8548333,108.088 86.1695,106.888333 87.0938333,106.318 C88.0378333,105.767333 89.2375,106.080033 89.7881667,107.006333 C90.3585,107.930667 90.0438333,109.15 89.1195,109.700667 C88.8048333,109.897333 88.4508333,109.976 88.1165,109.976 C87.4478333,109.976 86.7811333,109.641667 86.4251667,109.012333 Z M25.5961667,107.6337 C24.7111667,107.006333 24.4751667,105.787 25.1045,104.902 C25.7141667,103.997333 26.9335,103.781 27.8381667,104.390667 C28.7231667,105.000333 28.9591667,106.239333 28.3298333,107.124333 C27.9561667,107.675 27.3465,107.968033 26.7171667,107.968033 C26.3238333,107.968033 25.9501667,107.871667 25.5961667,107.6337 Z M91.4401667,105.905 C90.7911667,105.039667 90.9681667,103.800667 91.8335,103.151667 C92.6988333,102.502667 93.9378333,102.679667 94.5868333,103.564667 C95.2358333,104.43 95.0588333,105.667033 94.1738333,106.318 C93.8395,106.5717 93.4265,106.691667 93.0135,106.691667 C92.4038333,106.691667 91.8158,106.436 91.4401667,105.905 Z M20.7581667,103.918667 C19.9321667,103.2087 19.8338333,101.971667 20.5418333,101.145667 C21.2498333,100.319667 22.4888333,100.221333 23.3148333,100.927367 C24.1408333,101.637333 24.2391667,102.876333 23.5311667,103.700367 C23.1378333,104.154667 22.5871667,104.390667 22.0365,104.390667 C21.5861333,104.390667 21.1318333,104.233333 20.7581667,103.918667 Z M96.1011667,102.306 C95.3538333,101.4977 95.4128333,100.2587 96.2191667,99.5133333 L96.2191667,99.5310333 C97.0058333,98.7837 98.2645,98.8446667 98.9921667,99.651 C99.7198333,100.4357 99.6805,101.676667 98.8741667,102.424 C98.5005,102.758333 98.0285,102.935333 97.5565,102.935333 C97.0274667,102.935333 96.4964667,102.717033 96.1011667,102.306 Z M16.3331667,99.7296667 C15.5858333,98.943 15.6055,97.704 16.3921667,96.9566667 C17.1788333,96.2093333 18.4178333,96.229 19.1651667,97.0156667 C19.9321667,97.8003667 19.8928333,99.0393667 19.1061667,99.7886667 C18.7325,100.162333 18.2408333,100.339333 17.7491667,100.339333 C17.2378333,100.339333 16.7068333,100.142667 16.3331667,99.7296667 Z M100.368833,98.235 C99.5625,97.5073333 99.4838333,96.2683333 100.2115,95.462 C100.9195,94.636 102.1585,94.577 102.9845,95.285 C103.790833,96.0107 103.8695,97.2516667 103.141833,98.0560333 C102.7485,98.5103333 102.2175,98.7266667 101.666833,98.7266667 C101.2145,98.7266667 100.744467,98.5693333 100.368833,98.235 Z M12.3408333,95.1060333 C11.6721667,94.2623333 11.8295,93.0233333 12.6948333,92.3546667 C13.5601667,91.686 14.7795,91.8433333 15.4481667,92.7086667 C16.1168333,93.5523667 15.9595,94.7933333 15.1138333,95.462 C14.7401667,95.7373333 14.3271667,95.875 13.8945,95.875 C13.3241667,95.875 12.7361333,95.6193333 12.3408333,95.1060333 Z M104.203833,93.751 C103.318833,93.1216667 103.122167,91.8826667 103.7515,90.9976667 C104.380833,90.1323333 105.619833,89.916 106.504833,90.5453333 C107.389833,91.1943333 107.5865,92.4136667 106.957167,93.2967 C106.563833,93.8296667 105.973833,94.1227 105.3445,94.1227 C104.951167,94.1227 104.5598,94.0066667 104.203833,93.751 Z M8.85983333,90.1107 C8.2895,89.1883333 8.56483333,87.9886667 9.48916667,87.3967 C10.4135,86.8263667 11.6328333,87.1036667 12.2031667,88.028 C12.7735,88.9503667 12.4981667,90.1716667 11.5738333,90.742 C11.2395,90.9386667 10.8855,91.037 10.5315,91.037 C9.8825,91.037 9.2335,90.7026667 8.85983333,90.1107 Z M107.566833,88.8933333 C106.622833,88.3623333 106.2885,87.1607 106.839167,86.2186667 L106.8195,86.2186667 C107.370167,85.2727 108.569833,84.9383667 109.513833,85.4713333 C110.457833,86.022 110.792167,87.2216667 110.2415,88.1656667 C109.8875,88.7930333 109.218833,89.149 108.5305,89.149 C108.196167,89.149 107.861833,89.0703333 107.566833,88.8933333 Z M5.90983333,84.7810333 C5.43783333,83.7977 5.83116667,82.6196667 6.8145,82.1476667 C7.79783333,81.6756667 8.95816667,82.0670333 9.44983333,83.0503667 C9.92183333,84.0337 9.50883333,85.2156667 8.5255,85.6857 C8.25016667,85.8253333 7.95516667,85.8843333 7.67983333,85.8843333 C6.95216667,85.8843333 6.24416667,85.4713333 5.90983333,84.7810333 Z M110.398833,83.7190333 C109.395833,83.2883333 108.9435,82.1260333 109.395833,81.125 C109.8285,80.1416667 110.988833,79.6893333 111.991833,80.122 C112.975167,80.5546667 113.4275,81.715 112.994833,82.718 C112.6605,83.4456667 111.9525,83.898 111.1855,83.898 C110.929833,83.898 110.6545,83.839 110.398833,83.7190333 Z M3.53213333,79.1583333 C3.15846667,78.1337 3.6698,77.0146667 4.69246667,76.641 C5.71513333,76.2673333 6.8558,76.7983333 7.2098,77.8190333 C7.58346667,78.8436667 7.07213333,79.9646667 6.04946667,80.3383333 C5.81346667,80.417 5.59713333,80.4563333 5.36113333,80.4563333 C4.5725,80.4563333 3.80746667,79.9646667 3.53213333,79.1583333 Z M112.682133,78.293 C111.659467,77.9586667 111.089133,76.8357 111.423467,75.815 C111.738133,74.7726667 112.859133,74.2003667 113.8818,74.5347 C114.924133,74.8690333 115.494467,75.9723333 115.160133,77.0146667 C114.8848,77.8406667 114.1178,78.3716667 113.2918,78.3716667 C113.093167,78.3716667 112.8788,78.352 112.682133,78.293 Z M1.7405,73.337 C1.46516667,72.275 2.11416667,71.213 3.1565,70.9573333 C4.2185,70.6800333 5.2805,71.331 5.55583333,72.3733333 C5.8115,73.4353333 5.1625,74.4973333 4.12016667,74.7726667 C3.96283333,74.812 3.8055,74.8316667 3.64816667,74.8316667 C2.76316667,74.8316667 1.95683333,74.222 1.7405,73.337 Z M114.393133,72.629 C113.331133,72.4107 112.6428,71.3703333 112.8788,70.3083333 C113.095133,69.2463333 114.137467,68.5560333 115.199467,68.7920333 C116.261467,69.0103333 116.9498,70.0526667 116.7138,71.1146667 C116.5368,72.039 115.7108,72.6683333 114.806133,72.6683333 C114.6665,72.6683333 114.528833,72.6683333 114.393133,72.629 Z M0.5605,67.3386667 C0.403166667,66.2766667 1.1505,65.2717 2.23216667,65.1143667 C3.29416667,64.959 4.29716667,65.7063333 4.4545,66.788 C4.61183333,67.8696667 3.8645,68.853 2.78283333,69.0103333 C2.6845,69.03 2.60583333,69.03 2.5075,69.03 C1.54383333,69.03 0.700133333,68.322 0.5605,67.3386667 Z M115.494467,66.847 C114.4128,66.729 113.626133,65.7633667 113.744133,64.6836667 C113.862133,63.602 114.8258,62.8133667 115.907467,62.9333333 C116.989133,63.0316667 117.7758,64.015 117.6578,65.077 C117.559467,66.0977 116.694133,66.847 115.7108,66.847 L115.494467,66.847 Z M0.00983333333,61.2813333 C-0.0295,60.18 0.816166667,59.2753333 1.89783333,59.236 C2.9795,59.1966667 3.90383333,60.0423333 3.94316667,61.124 C3.9825,62.2056667 3.13683333,63.13 2.05516667,63.1693333 L1.9765,63.1693333 C0.936133333,63.1693333 0.0491666667,62.3217 0.00983333333,61.2813333 Z M114.037167,59 C114.037167,57.9183333 114.922167,57.0333333 116.003833,57.0333333 C117.0855,57.0333333 117.9705,57.9183333 117.9705,59 C117.9705,60.0816667 117.0855,60.9666667 116.003833,60.9666667 C114.924133,60.9666667 114.037167,60.0816667 114.037167,59 Z" id="XMLID_105_" fill="#536DFE"></path>
            </g>
        </g>
    </g>
</svg>