<?xml version="1.0" encoding="UTF-8"?>
<svg width="220px" height="219px" viewBox="0 0 220 219" version="1.1" xmlns="http://www.w3.org/2000/svg" xmlns:xlink="http://www.w3.org/1999/xlink">
    <!-- Generator: Sketch 49.3 (51167) - http://www.bohemiancoding.com/sketch -->
    <title>school-material</title>
    <desc>Created with Sketch.</desc>
    <defs>
        <filter x="-69.5%" y="-67.8%" width="239.0%" height="239.0%" filterUnits="objectBoundingBox" id="filter-1">
            <feOffset dx="0" dy="2" in="SourceAlpha" result="shadowOffsetOuter1"></feOffset>
            <feGaussianBlur stdDeviation="27" in="shadowOffsetOuter1" result="shadowBlurOuter1"></feGaussianBlur>
            <feColorMatrix values="0 0 0 0 0   0 0 0 0 0   0 0 0 0 0  0 0 0 0.2 0" type="matrix" in="shadowBlurOuter1" result="shadowMatrixOuter1"></feColorMatrix>
            <feMerge>
                <feMergeNode in="shadowMatrixOuter1"></feMergeNode>
                <feMergeNode in="SourceGraphic"></feMergeNode>
            </feMerge>
        </filter>
    </defs>
    <g id="Page-1" stroke="none" stroke-width="1" fill="none" fill-rule="evenodd">
        <g id="Artboard" transform="translate(-1355.000000, -1681.000000)" fill-rule="nonzero">
            <g id="school-material" filter="url(#filter-1)" transform="translate(1409.000000, 1727.000000)">
                <path d="M89.5172891,28.4829414 L4.06915625,28.4829414 C1.82185547,28.4829414 0.00023046875,30.3045664 0.00023046875,32.5518672 L0.00023046875,113.931074 C0.00023046875,116.178375 1.82185547,118 4.06915625,118 L89.5175195,118 C91.7648203,118 93.5864453,116.178375 93.5864453,113.931074 L93.5864453,32.5518672 C93.5864453,30.3045664 91.7643594,28.4829414 89.5172891,28.4829414 Z" id="Shape" fill="#EFF2FA"></path>
                <g id="Group" transform="translate(8.066406, 28.347656)" fill="#D7DEED">
                    <path d="M85.5200391,4.20421094 C85.5200391,1.95691016 83.6981836,0.135285156 81.4511133,0.135285156 L78.9231016,0.135285156 L40.8231602,38.2352266 L37.2266953,46.1476797 L34.7526133,51.5904297 C34.3638125,52.4461602 35.2439727,53.3263203 36.0997031,52.9372891 L39.9789531,51.1739727 L49.4544453,46.8667422 L85.5200391,10.8013789 L85.5200391,4.20421094 Z" id="Shape"></path>
                    <path d="M18.381957,16.4112187 L2.10602344,16.4112187 C0.982488281,16.4112187 0.0714453125,15.5001758 0.0714453125,14.3766406 C0.0714453125,13.2531055 0.982488281,12.3420625 2.10602344,12.3420625 L18.381957,12.3420625 C19.5054922,12.3420625 20.4165352,13.2531055 20.4165352,14.3766406 C20.4165352,15.5001758 19.5054922,16.4112187 18.381957,16.4112187 Z" id="Shape"></path>
                    <path d="M75.3476094,16.4112187 L69.2441055,16.4112187 C68.1205703,16.4112187 67.2095273,15.5001758 67.2095273,14.3766406 C67.2095273,13.2531055 68.1205703,12.3420625 69.2441055,12.3420625 L75.3476094,12.3420625 C76.4711445,12.3420625 77.3821875,13.2531055 77.3821875,14.3766406 C77.381957,15.5001758 76.4711445,16.4112187 75.3476094,16.4112187 Z" id="Shape"></path>
                </g>
                <path d="M69.1724297,44.758875 L34.5864453,44.758875 C33.4629102,44.758875 32.5518672,43.847832 32.5518672,42.7242969 C32.5518672,41.6007617 33.4629102,40.6897187 34.5864453,40.6897187 L69.1726602,40.6897187 C70.2961953,40.6897187 71.2072383,41.6007617 71.2072383,42.7242969 C71.2070078,43.847832 70.2961953,44.758875 69.1724297,44.758875 Z" id="Shape" fill="#C7CFE2"></path>
                <g id="Group" transform="translate(8.066406, 60.843750)" fill="#D7DEED">
                    <path d="M26.5200391,4.25998437 L2.10602344,4.25998437 C0.982488281,4.25998437 0.0714453125,3.34894141 0.0714453125,2.22540625 C0.0714453125,1.10187109 0.982488281,0.190828125 2.10602344,0.190828125 L26.5200391,0.190828125 C27.6435742,0.190828125 28.5546172,1.10187109 28.5546172,2.22540625 C28.5543867,3.34894141 27.6435742,4.25998437 26.5200391,4.25998437 Z" id="Shape"></path>
                    <path d="M16.3476094,14.4324141 L2.10602344,14.4324141 C0.982488281,14.4324141 0.0714453125,13.5213711 0.0714453125,12.3978359 C0.0714453125,11.2743008 0.982488281,10.3632578 2.10602344,10.3632578 L16.3473789,10.3632578 C17.4709141,10.3632578 18.381957,11.2743008 18.381957,12.3978359 C18.381957,13.5213711 17.4711445,14.4324141 16.3476094,14.4324141 Z" id="Shape"></path>
                    <path d="M75.3476094,14.4324141 L42.7957422,14.4324141 C41.672207,14.4324141 40.7611641,13.5213711 40.7611641,12.3978359 C40.7611641,11.2743008 41.672207,10.3632578 42.7957422,10.3632578 L75.3473789,10.3632578 C76.4709141,10.3632578 77.381957,11.2743008 77.381957,12.3978359 C77.381957,13.5213711 76.4711445,14.4324141 75.3476094,14.4324141 Z" id="Shape"></path>
                    <path d="M75.3476094,4.25998437 L59.0716758,4.25998437 C57.9481406,4.25998437 57.0370977,3.34894141 57.0370977,2.22540625 C57.0370977,1.10187109 57.9481406,0.190828125 59.0716758,0.190828125 L75.3476094,0.190828125 C76.4711445,0.190828125 77.3821875,1.10187109 77.3821875,2.22540625 C77.381957,3.34894141 76.4711445,4.25998437 75.3476094,4.25998437 Z" id="Shape"></path>
                </g>
                <g id="Group" transform="translate(8.066406, 50.703125)" fill="#C7CFE2">
                    <path d="M50.9338242,14.4003789 L34.6578906,14.4003789 C33.5343555,14.4003789 32.6233125,13.4893359 32.6233125,12.3658008 C32.6233125,11.2422656 33.5343555,10.3312227 34.6578906,10.3312227 L50.9338242,10.3312227 C52.0573594,10.3312227 52.9684023,11.2422656 52.9684023,12.3658008 C52.9681719,13.4895664 52.0573594,14.4003789 50.9338242,14.4003789 Z" id="Shape"></path>
                    <path d="M32.6233125,4.22817969 L2.10602344,4.22817969 C0.982488281,4.22817969 0.0714453125,3.31713672 0.0714453125,2.19360156 C0.0714453125,1.07006641 0.982488281,0.159023437 2.10602344,0.159023437 L32.6233125,0.159023437 C33.7468477,0.159023437 34.6578906,1.07006641 34.6578906,2.19360156 C34.6578906,3.31713672 33.7468477,4.22817969 32.6233125,4.22817969 Z" id="Shape"></path>
                    <path d="M30.5889648,24.5730391 L24.4854609,24.5730391 C23.3619258,24.5730391 22.4508828,23.6619961 22.4508828,22.5384609 C22.4508828,21.4149258 23.3619258,20.5038828 24.4854609,20.5038828 L30.5889648,20.5038828 C31.7125,20.5038828 32.623543,21.4149258 32.623543,22.5384609 C32.6233125,23.6619961 31.7125,24.5730391 30.5889648,24.5730391 Z" id="Shape"></path>
                </g>
                <g id="Group" transform="translate(8.066406, 81.355469)" fill="#D7DEED">
                    <path d="M10.2441055,4.093125 L2.10625391,4.093125 C0.98271875,4.093125 0.0716757812,3.18208203 0.0716757812,2.05854688 C0.0716757812,0.935011719 0.98271875,0.02396875 2.10625391,0.02396875 L10.2441055,0.02396875 C11.3676406,0.02396875 12.2786836,0.935011719 12.2786836,2.05854688 C12.2784531,3.18208203 11.3676406,4.093125 10.2441055,4.093125 Z" id="Shape"></path>
                    <path d="M48.8992461,14.2655547 L40.7613945,14.2655547 C39.6378594,14.2655547 38.7268164,13.3545117 38.7268164,12.2309766 C38.7268164,11.1074414 39.6378594,10.1963984 40.7613945,10.1963984 L48.8992461,10.1963984 C50.0227813,10.1963984 50.9338242,11.1074414 50.9338242,12.2309766 C50.9338242,13.3545117 50.0227813,14.2655547 48.8992461,14.2655547 Z" id="Shape"></path>
                    <path d="M75.3476094,14.2655547 L57.0373281,14.2655547 C55.913793,14.2655547 55.00275,13.3545117 55.00275,12.2309766 C55.00275,11.1074414 55.913793,10.1963984 57.0373281,10.1963984 L75.3476094,10.1963984 C76.4711445,10.1963984 77.3821875,11.1074414 77.3821875,12.2309766 C77.381957,13.3545117 76.4711445,14.2655547 75.3476094,14.2655547 Z" id="Shape"></path>
                    <path d="M75.3476094,4.093125 L67.2097578,4.093125 C66.0862227,4.093125 65.1751797,3.18208203 65.1751797,2.05854688 C65.1751797,0.935011719 66.0862227,0.02396875 67.2097578,0.02396875 L75.3476094,0.02396875 C76.4711445,0.02396875 77.3821875,0.935011719 77.3821875,2.05854688 C77.381957,3.18208203 76.4711445,4.093125 75.3476094,4.093125 Z" id="Shape"></path>
                </g>
                <path d="M67.138082,85.4485938 L26.4483633,85.4485938 C25.3248281,85.4485938 24.4137852,84.5375508 24.4137852,83.4140156 C24.4137852,82.2904805 25.3248281,81.3794375 26.4483633,81.3794375 L67.138082,81.3794375 C68.2616172,81.3794375 69.1726602,82.2904805 69.1726602,83.4140156 C69.1724297,84.5375508 68.2616172,85.4485938 67.138082,85.4485938 Z" id="Shape" fill="#C7CFE2"></path>
                <g id="Group" transform="translate(8.066406, 101.636719)" fill="#D7DEED">
                    <path d="M26.5200391,4.15673438 L2.10602344,4.15673438 C0.982488281,4.15673438 0.0714453125,3.24569141 0.0714453125,2.12215625 C0.0714453125,0.998621094 0.982488281,0.087578125 2.10602344,0.087578125 L26.5200391,0.087578125 C27.6435742,0.087578125 28.5546172,0.998621094 28.5546172,2.12215625 C28.5543867,3.24569141 27.6435742,4.15673438 26.5200391,4.15673438 Z" id="Shape"></path>
                    <path d="M75.3476094,4.15673438 L61.1062539,4.15673438 C59.9827188,4.15673438 59.0716758,3.24569141 59.0716758,2.12215625 C59.0716758,0.998621094 59.9827188,0.087578125 61.1062539,0.087578125 L75.3476094,0.087578125 C76.4711445,0.087578125 77.3821875,0.998621094 77.3821875,2.12215625 C77.381957,3.24569141 76.4711445,4.15673438 75.3476094,4.15673438 Z" id="Shape"></path>
                </g>
                <g id="Group" transform="translate(8.066406, 91.496094)" fill="#C7CFE2">
                    <path d="M52.9681719,14.2973594 L34.6578906,14.2973594 C33.5343555,14.2973594 32.6233125,13.3863164 32.6233125,12.2627813 C32.6233125,11.1392461 33.5343555,10.2282031 34.6578906,10.2282031 L52.9681719,10.2282031 C54.091707,10.2282031 55.00275,11.1392461 55.00275,12.2627813 C55.00275,13.3863164 54.091707,14.2973594 52.9681719,14.2973594 Z" id="Shape"></path>
                    <path d="M32.6233125,4.12492969 L2.10602344,4.12492969 C0.982488281,4.12492969 0.0714453125,3.21388672 0.0714453125,2.09035156 C0.0714453125,0.966816406 0.982488281,0.0557734375 2.10602344,0.0557734375 L32.6233125,0.0557734375 C33.7468477,0.0557734375 34.6578906,0.966816406 34.6578906,2.09035156 C34.6578906,3.21388672 33.7468477,4.12492969 32.6233125,4.12492969 Z" id="Shape"></path>
                </g>
                <path d="M83.4140156,54.9313047 L48.8278008,54.9313047 C47.7042656,54.9313047 46.7932227,54.0202617 46.7932227,52.8967266 C46.7932227,51.7731914 47.7042656,50.8621484 48.8278008,50.8621484 L83.4140156,50.8621484 C84.5375508,50.8621484 85.4485938,51.7731914 85.4485938,52.8967266 C85.4483633,54.0202617 84.5375508,54.9313047 83.4140156,54.9313047 Z" id="Shape" fill="#D7DEED"></path>
                <rect id="Rectangle-path" fill="#FFC36E" transform="translate(79.282318, 34.402673) rotate(-135.000000) translate(-79.282318, -34.402673) " x="76.2305955" y="-6.28619455" width="6.10344537" height="81.3777352"></rect>
                <rect id="Rectangle-path" fill="#FFD782" transform="translate(83.597730, 38.718294) rotate(-135.000000) translate(-83.597730, -38.718294) " x="80.5460077" y="-1.97057387" width="6.10344537" height="81.3777352"></rect>
                <path d="M114.527066,12.1049102 L105.895551,3.47339453 L108.772723,0.596222656 C109.567148,-0.198203125 110.855469,-0.198203125 111.649895,0.596222656 L117.404238,6.35056641 C118.198664,7.14499219 118.198664,8.4333125 117.404238,9.22773828 L114.527066,12.1049102 Z" id="Shape" fill="#EFF2FA"></path>
                <g id="Group" transform="translate(44.019531, 0.000000)" fill="#D7DEED">
                    <path d="M66.1915469,7.78892187 L61.8757891,3.47316406 L64.7529609,0.595992188 C65.5473867,-0.198433594 66.835707,-0.198433594 67.6301328,0.595992188 L70.5073047,3.47316406 L66.1915469,7.78892187 Z" id="Shape"></path>
                    <polygon id="Shape" points="1.75640234 72.2242969 8.64810938 65.3328203 4.33212109 61.017293 0.024890625 70.4927852"></polygon>
                </g>
                <polygon id="Shape" fill="#FFFFFF" points="47.5076758 73.9560391 56.983168 69.6488086 52.6676406 65.3328203 45.7759336 72.2242969"></polygon>
                <path d="M43.6281953,75.719125 L49.0709453,73.2452734 L44.754957,68.9292852 L42.2811055,74.3720352 C41.8920742,75.2277656 42.7722344,76.1081563 43.6281953,75.719125 Z" id="Shape" fill="#707487"></path>
            </g>
        </g>
    </g>
</svg>