<?xml version="1.0" encoding="UTF-8"?>
<svg width="221px" height="222px" viewBox="0 0 221 222" version="1.1" xmlns="http://www.w3.org/2000/svg" xmlns:xlink="http://www.w3.org/1999/xlink">
    <!-- Generator: Sketch 49.3 (51167) - http://www.bohemiancoding.com/sketch -->
    <title>help</title>
    <desc>Created with Sketch.</desc>
    <defs>
        <filter x="-69.5%" y="-67.8%" width="239.0%" height="239.0%" filterUnits="objectBoundingBox" id="filter-1">
            <feOffset dx="0" dy="2" in="SourceAlpha" result="shadowOffsetOuter1"></feOffset>
            <feGaussianBlur stdDeviation="27" in="shadowOffsetOuter1" result="shadowBlurOuter1"></feGaussianBlur>
            <feColorMatrix values="0 0 0 0 0   0 0 0 0 0   0 0 0 0 0  0 0 0 0.2 0" type="matrix" in="shadowBlurOuter1" result="shadowMatrixOuter1"></feColorMatrix>
            <feMerge>
                <feMergeNode in="shadowMatrixOuter1"></feMergeNode>
                <feMergeNode in="SourceGraphic"></feMergeNode>
            </feMerge>
        </filter>
    </defs>
    <g id="Page-1" stroke="none" stroke-width="1" fill="none" fill-rule="evenodd">
        <g id="Artboard" transform="translate(-1357.000000, -1677.000000)" fill-rule="nonzero">
            <g id="help" filter="url(#filter-1)" transform="translate(1409.000000, 1727.000000)">
                <path d="M103.07078,57.1489188 L102.79459,53.3757228 L105.187303,50.9830099 C115.770384,40.3999287 115.770384,23.0987921 105.187303,12.6075406 C94.6042218,2.02445941 77.3949149,2.02445941 66.8118337,12.6075406 L64.4191208,15.0002535 C63.2227644,14.8161267 61.9343446,14.7240634 60.6459248,14.7240634 L64.7871406,10.5828475 C76.4745149,-1.10452673 95.5243881,-1.1965901 107.211762,10.5828475 C118.899137,22.2702218 118.899137,41.320095 107.211762,53.0074693 C107.211996,53.007703 103.07078,57.1489188 103.07078,57.1489188 Z M53.4680198,15.0925505 L51.0753069,12.6998376 C40.4922257,2.11675644 23.1910891,2.11675644 12.6998376,12.6998376 C2.02469307,23.1908554 2.02469307,40.4922257 12.6998376,51.0753069 L15.0925505,53.4680198 C14.9084238,54.6643762 14.8163604,55.952796 14.8163604,57.2412158 L10.6751446,53.1 C-1.0122297,41.4126257 -1.10429307,22.3627525 10.6751446,10.6753782 C22.3625188,-1.01199604 41.4123921,-1.01199604 53.0997663,10.6753782 L57.2409822,14.8165941 C55.9525624,14.8163604 54.6643762,14.9084238 53.4680198,15.0925505 Z M14.724297,60.6461584 L15.0004871,64.4193545 L12.6077743,66.8120673 C2.02469307,77.3951485 2.02469307,94.6962851 12.5157109,105.187303 C23.0987921,115.770384 40.308099,115.770384 50.8911802,105.187303 L53.2838931,102.79459 C54.4802495,102.978717 55.7686693,103.07078 57.0570891,103.07078 L52.9158733,107.211996 C41.228499,118.89937 22.1786257,118.991434 10.4912515,107.304059 C-1.19612277,95.6166851 -1.19635644,76.5668119 10.5830812,64.879204 L14.724297,60.6461584 Z M64.3270574,102.702527 L66.7197703,105.09524 C77.3028515,115.678321 94.6039881,115.678321 105.09524,105.09524 C115.678321,94.5121584 115.678321,77.3028515 105.003176,66.7197703 L102.610463,64.3270574 C102.79459,63.130701 102.886653,61.8422812 102.886653,60.5538614 L107.027869,64.6950772 C118.715244,76.3824515 118.807307,95.4323248 107.119933,107.119699 C95.4325584,118.807073 76.3826851,118.807073 64.6953109,107.027636 L60.554095,102.88642 C61.8425149,102.978717 63.130701,102.886653 64.3270574,102.702527 Z" id="Shape" fill="#E4E7E7"></path>
                <path d="M58.8976554,0 C26.411905,0 0,26.411905 0,58.8976554 C0,91.3834059 26.3198416,117.795311 58.8976554,117.795311 C91.3834059,117.795311 117.795311,91.3834059 117.795311,58.8976554 C117.795311,26.411905 91.3831723,0 58.8976554,0 Z M58.8976554,88.3462495 C42.6087485,88.3462495 29.4488277,75.1863287 29.4488277,58.8974218 C29.4488277,42.6085149 42.6087485,29.4485941 58.8976554,29.4485941 C75.1865624,29.4485941 88.3464832,42.6085149 88.3464832,58.8974218 C88.3464832,75.1863287 75.1863287,88.3462495 58.8976554,88.3462495 Z" id="Shape" fill="#E2574C"></path>
                <path d="M58.8976554,22.3627525 C38.7437228,22.3627525 22.3627525,38.7437228 22.3627525,58.8976554 C22.3627525,79.0515881 38.7437228,95.4325584 58.8976554,95.4325584 C79.0515881,95.4325584 95.4325584,79.0515881 95.4325584,58.8976554 C95.4325584,38.7437228 79.0515881,22.3627525 58.8976554,22.3627525 Z M58.8976554,88.3462495 C42.6087485,88.3462495 29.4488277,75.1863287 29.4488277,58.8974218 C29.4488277,42.6085149 42.6087485,29.4485941 58.8976554,29.4485941 C75.1865624,29.4485941 88.3464832,42.6085149 88.3464832,58.8974218 C88.3464832,75.1863287 75.1863287,88.3462495 58.8976554,88.3462495 Z" id="Shape" fill="#D95449"></path>
                <path d="M58.8976554,8.28243168 C30.9213743,8.28243168 8.28266535,30.9211406 8.28266535,58.8974218 C8.28266535,86.873703 30.9213743,109.512412 58.8976554,109.512412 C86.8739366,109.512412 109.512646,86.873703 109.512646,58.8974218 C109.512646,30.9211406 86.8739366,8.28243168 58.8976554,8.28243168 Z M58.8976554,105.831513 C32.9458337,105.831513 11.9635644,84.8492436 11.9635644,58.8974218 C11.9635644,32.9456 32.9458337,11.9635644 58.8976554,11.9635644 C84.8494772,11.9635644 105.831747,32.9458337 105.831747,58.8976554 C105.831747,84.8494772 84.8492436,105.831513 58.8976554,105.831513 Z" id="Shape" fill="#E5685E"></path>
                <path d="M45.1853545,84.9413069 C39.8477822,82.1805743 35.5224396,77.7631683 32.7617069,72.5176594 L11.5034812,93.8679485 C15.0004871,98.5613109 19.141703,102.79459 23.9271287,106.291596 L45.1853545,84.9413069 Z M72.5176594,32.7617069 C77.8552317,35.5224396 82.1805743,39.8477822 84.9413069,45.1853545 L106.291596,23.9271287 C102.79459,19.2337663 98.5613109,15.0004871 93.8679485,11.5034812 L72.5176594,32.7617069 Z M11.5034812,23.9271287 L32.7617069,45.1853545 C35.5224396,39.8477822 39.8477822,35.5224396 45.1853545,32.7617069 L23.9271287,11.5034812 C19.2337663,15.0004871 15.0004871,19.2337663 11.5034812,23.9271287 Z M106.291596,93.8679485 L85.0333703,72.6097228 C82.2726376,77.947295 77.947295,82.2726376 72.6097228,85.0333703 L93.8679485,106.291596 C98.5613109,102.79459 102.79459,98.5613109 106.291596,93.8679485 Z" id="Shape" fill="#EFEFEF"></path>
                <path d="M77.7631683,27.6082614 L72.6097228,32.7617069 C77.947295,35.5224396 82.2726376,39.8477822 85.0333703,45.1853545 L90.1868158,40.0319089 C87.0578297,34.9705267 82.8247842,30.6451842 77.7631683,27.6082614 Z M32.7617069,72.5176594 L27.6082614,77.7631683 C30.6451842,82.8247842 34.9705267,87.0578297 40.0319089,90.1868158 L45.1853545,85.0333703 C39.9398455,82.1805743 35.614503,77.8552317 32.7617069,72.5176594 Z M72.6097228,85.0333703 L77.7631683,90.1868158 C82.8247842,87.1498931 87.0578297,82.8245505 90.1868158,77.7631683 L85.0333703,72.6097228 C82.1805743,77.8552317 77.8552317,82.1805743 72.6097228,85.0333703 Z M45.2774178,32.8537703 L40.0319089,27.6082614 C34.9702931,30.7372475 30.7372475,34.9705267 27.6082614,40.0319089 L32.7617069,45.1853545 C35.614503,39.9398455 39.9398455,35.614503 45.2774178,32.8537703 Z" id="Shape" fill="#E6E6E6"></path>
                <path d="M20.0618693,85.3093267 L17.3929663,87.9782297 C20.7979089,92.7636554 24.9391248,96.9969347 29.8166139,100.401877 L32.4855168,97.7329743 C27.6082614,94.3280317 23.3749822,90.1868158 20.0618693,85.3093267 Z M97.7332079,85.3093267 C94.4203287,90.1868158 90.1870495,94.420095 85.3095604,97.7329743 L87.9784634,100.401877 C92.7638891,96.9969347 96.9971683,92.7636554 100.402111,87.9782297 L97.7332079,85.3093267 Z M20.0618693,32.4857505 C23.3747485,27.6082614 27.6080277,23.3749822 32.4855168,20.062103 L29.9089109,17.4852634 C25.1234851,20.8902059 20.8902059,25.1234851 17.4852634,29.9089109 L20.0618693,32.4857505 Z M97.7332079,32.4857505 L100.402111,29.8168475 C96.9971683,25.0314218 92.7638891,20.7981426 87.9784634,17.3932 L85.3095604,20.062103 C90.1868158,23.3749822 94.3280317,27.6082614 97.7332079,32.4857505 Z" id="Shape" fill="#F1F1F1"></path>
            </g>
        </g>
    </g>
</svg>