<?xml version="1.0" encoding="UTF-8"?>
<svg width="305px" height="226px" viewBox="0 0 305 226" version="1.1" xmlns="http://www.w3.org/2000/svg" xmlns:xlink="http://www.w3.org/1999/xlink">
    <!-- Generator: Sketch 49.3 (51167) - http://www.bohemiancoding.com/sketch -->
    <title>Icon</title>
    <desc>Created with Sketch.</desc>
    <defs>
        <filter x="-40.0%" y="-67.8%" width="180.0%" height="239.0%" filterUnits="objectBoundingBox" id="filter-1">
            <feOffset dx="0" dy="2" in="SourceAlpha" result="shadowOffsetOuter1"></feOffset>
            <feGaussianBlur stdDeviation="27" in="shadowOffsetOuter1" result="shadowBlurOuter1"></feGaussianBlur>
            <feColorMatrix values="0 0 0 0 0   0 0 0 0 0   0 0 0 0 0  0 0 0 0.2 0" type="matrix" in="shadowBlurOuter1" result="shadowMatrixOuter1"></feColorMatrix>
            <feMerge>
                <feMergeNode in="shadowMatrixOuter1"></feMergeNode>
                <feMergeNode in="SourceGraphic"></feMergeNode>
            </feMerge>
        </filter>
        <path d="M0,105 L0,3.08842332 C0,1.41475488 1.82492961,0 3.98579473,0 L161.013565,0 C163.169951,0 165,1.41475488 165,3.08842332 L165,105 L0,105" id="path-2"></path>
    </defs>
    <g id="Page-1" stroke="none" stroke-width="1" fill="none" fill-rule="evenodd">
        <g id="Artboard" transform="translate(-1315.000000, -1675.000000)">
            <g id="Icon" filter="url(#filter-1)" transform="translate(1365.000000, 1727.000000)">
                <path d="M180.853166,0 L24.1468344,0 C18.5427678,0 14,4.1352756 14,9.23680856 L14,117 L191,117 L191,9.23680856 C191,4.1352756 186.453401,0 180.853166,0" id="Fill-220" fill="#404143"></path>
                <g id="Screen" transform="translate(20.000000, 7.000000)">
                    <mask id="mask-3" fill="white">
                        <use xlink:href="#path-2"></use>
                    </mask>
                    <use id="Fill-222" fill="#4DD0E1" xlink:href="#path-2"></use>
                    <g id="Rocket" mask="url(#mask-3)">
                        <g transform="translate(27.000000, 10.000000)">
                            <path d="M54,36.9993302 C54,38.1041527 54.8954374,39 56.0015069,39 C57.1045626,39 58,38.1041527 58,36.9993302 C58,35.8951775 57.1045626,35 56.0015069,35 C54.8954374,35 54,35.8951775 54,36.9993302" id="Fill-8" fill="#B7B5B1"></path>
                            <path d="M87.213153,90.0737019 L90.5331325,91.5062029 C90.5331325,91.5062029 93.5867803,89 97.3050907,89.5370194 C100.366072,89.978696 102.085395,91.5051922 103.147721,94.1896155 L111.926334,99.1302616 L112,106 L68.7999333,104.568173 L58,95.8 L64.5509596,89 L87.213153,90.0737019" id="Fill-11" fill="#C8C6C1"></path>
                            <path d="M57.695734,86.1115888 C57.9755382,86.8231843 58.2747686,87.5444456 58.5947884,88.2710396 L58.5999005,88.2710396 C58.6874885,88.2653735 58.775758,88.2613739 58.8643684,88.2580409 C58.9628622,88.2557078 59.0620377,88.2530414 59.1618947,88.2547079 C59.2883349,88.2560411 59.4137527,88.2613739 59.5384888,88.2693731 C59.5800675,88.2720395 59.6209646,88.2767057 59.6625433,88.2800387 C59.7453599,88.287038 59.8281766,88.2933707 59.9096299,88.3027031 C59.9590472,88.3083692 60.007783,88.3163684 60.0572003,88.3230344 C60.1301334,88.3330334 60.2027258,88.3423658 60.2749773,88.3543646 C60.3267803,88.3630304 60.3785833,88.373696 60.4300454,88.3833617 C60.4982073,88.3963604 60.5667099,88.4090258 60.6341901,88.423691 C60.6870155,88.4353565 60.7395001,88.4486885 60.7923255,88.4616872 C60.8567384,88.4773523 60.9221738,88.4930174 60.9862459,88.510349 C61.0394121,88.5250142 61.0918967,88.5410126 61.1447221,88.5566777 C61.2070902,88.5753425 61.2694583,88.5940073 61.3311447,88.613672 C61.3839701,88.6310036 61.4361139,88.6496684 61.4885985,88.6683332 C61.5489217,88.6896644 61.6089041,88.7106623 61.6682049,88.73366 C61.7206895,88.753658 61.7724925,88.7749892 61.8239547,88.7959871 C61.882233,88.8199847 61.9398298,88.8439823 61.9970857,88.8693131 C62.0485479,88.8916442 62.0996693,88.9153085 62.1504498,88.9389728 C62.2063425,88.9656368 62.2622352,88.9923008 62.3174463,89.0199647 C62.3675452,89.0452955 62.4176442,89.0712929 62.4670615,89.0976236 C62.5219317,89.1262874 62.5754388,89.1559511 62.6289458,89.1862814 C62.6776815,89.213612 62.7260764,89.2416092 62.7737897,89.2699397 C62.8269559,89.3016032 62.8794405,89.3339333 62.9315843,89.36693 C62.9782751,89.3962604 63.0246252,89.4262574 63.0709752,89.456921 C63.1224374,89.4909176 63.1735588,89.5262474 63.2239985,89.5615772 C63.2683037,89.5932407 63.3132905,89.6245709 63.3572549,89.656901 C63.4076946,89.6942306 63.4571119,89.7325601 63.5065293,89.7708896 C63.5487896,89.8038863 63.5910499,89.8365497 63.6322878,89.870213 C63.6820459,89.9108756 63.7307816,89.9525381 63.7791765,89.9942006 C63.8183696,90.0278639 63.8579034,90.0615272 63.8960741,90.0961904 C63.9458322,90.1405193 63.9935455,90.1861814 64.0419404,90.2321768 C64.0773845,90.2661734 64.1135103,90.2995034 64.1482728,90.3338333 C64.1980309,90.383495 64.2464258,90.4344899 64.2951615,90.4854848 C64.3200406,90.5114822 64.3456013,90.536813 64.3701395,90.5631437 C64.3766149,90.570143 64.3827495,90.5778089 64.3892248,90.5848082 C64.4253506,90.6244709 64.4601131,90.6651335 64.4955573,90.7054628 C64.5327055,90.7477919 64.5701945,90.7907876 64.6066611,90.8344499 C64.6400603,90.8744459 64.6720964,90.9161084 64.7051549,90.9571043 C64.7409398,91.0024331 64.7770656,91.0474286 64.8118281,91.0937573 C64.8431826,91.1354198 64.8735146,91.1774156 64.9035058,91.2194114 C64.9375867,91.26674 64.9716676,91.3140686 65.0043853,91.3620638 C65.0336949,91.4047262 65.0616412,91.4477219 65.0899284,91.4913842 C65.1219644,91.5403793 65.1540005,91.590041 65.1846733,91.640036 C65.2115972,91.6836983 65.2374987,91.7276939 65.2634002,91.7720228 C65.2933914,91.8230177 65.322701,91.8743459 65.351329,91.9263407 C65.3649613,91.9506716 65.3779121,91.9756691 65.3908628,92 L91,92 C91,92 91.0203893,90.9054428 90.3012821,89.9105423 C90.2719725,89.880212 90.238914,89.8458821 90.2153982,89.8222178 C90.1946089,89.8008866 90.1758644,89.7805553 90.1547342,89.7595574 C90.0937294,89.6998967 90.0320429,89.6432357 89.9679708,89.586908 C89.9594506,89.5795754 89.9519528,89.5719095 89.9434326,89.5642436 C89.8698178,89.50025 89.794499,89.4385895 89.7178169,89.3789288 C89.7021397,89.3665967 89.6857809,89.3555978 89.6697628,89.343599 C89.6094396,89.2976036 89.548094,89.2526081 89.4857259,89.2092791 C89.4577796,89.1899477 89.4294924,89.1722828 89.4008645,89.153618 C89.3494023,89.1196214 89.2979401,89.0852915 89.2451147,89.0529614 C89.2117154,89.0326301 89.1779753,89.013632 89.1442352,88.9939673 C89.0954995,88.9653035 89.046423,88.936973 88.996324,88.910309 C88.9598575,88.890311 88.9227093,88.8719795 88.8859019,88.8529814 C88.8378478,88.8283172 88.7891121,88.8039863 88.7400356,88.7809886 C88.7011834,88.7626571 88.6619903,88.7453255 88.6231381,88.7279939 C88.5747432,88.7066627 88.5263483,88.6859981 88.4772718,88.6660001 C88.4367155,88.6496684 88.3958184,88.63367 88.3549213,88.6183382 C88.3061856,88.6000067 88.2574499,88.5823418 88.2080326,88.5653435 C88.1661131,88.5510116 88.1241935,88.537013 88.0819332,88.523681 C88.0325159,88.5080159 87.9830986,88.4933507 87.9329996,88.4793521 C87.8903985,88.46702 87.8477973,88.4550212 87.8045146,88.4440223 C87.753734,88.4306903 87.7026127,88.4193581 87.6511505,88.4076926 C87.5942354,88.3983602 87.5410692,88.3866947 87.4902886,88.3733627 C87.4480283,88.3653635 87.4054271,88.3580309 87.3631668,88.3510316 C87.3215881,88.3440323 87.2803502,88.3363664 87.2387715,88.330367 C87.1808339,88.3220345 87.1225556,88.3160351 87.0642772,88.3093691 C87.0264474,88.3053695 86.9889584,88.3000367 86.9507878,88.2967037 C86.8761506,88.2900377 86.8008318,88.2860381 86.7251721,88.2827051 C86.7037012,88.2817052 86.6822302,88.2797054 86.6607592,88.2790388 C86.5643102,88.2757058 86.4678613,88.2753725 86.3707307,88.2777056 C86.2657615,88.2800387 86.1607923,88.2850382 86.0554823,88.293704 C85.513255,88.3386995 84.9689828,88.4683532 84.4410695,88.690331 C84.2703241,88.7626571 84.1060542,88.8429824 83.9472371,88.9299737 C84.1162784,88.2883712 84.0804935,87.5891078 83.7911465,86.9331733 C83.7516127,86.8425157 83.7066259,86.7555244 83.6592534,86.6708662 C83.6445986,86.6445355 83.6282398,86.619538 83.6129034,86.5935406 C83.5781408,86.5358797 83.5426967,86.4788854 83.5048669,86.4242242 C83.4851,86.396227 83.4656738,86.3688964 83.4455661,86.3418991 C83.4073955,86.2899043 83.36718,86.239576 83.3262829,86.1905809 C83.3054936,86.16625 83.285045,86.1412525 83.2639148,86.1172549 C83.2117711,86.0592607 83.1575824,86.0032663 83.1016897,85.9492717 C83.0901022,85.9386061 83.0798779,85.9272739 83.0686312,85.9166083 C83.001151,85.8536146 82.9309444,85.7942872 82.858352,85.7379595 C82.8358586,85.7206279 82.8126836,85.7042962 82.7898494,85.6876312 C82.7377056,85.6493017 82.6848802,85.6119721 82.6303507,85.5769756 C82.6024044,85.5586441 82.5737764,85.5409792 82.5451484,85.5236476 C82.4919822,85.4916508 82.4377936,85.4616538 82.3829233,85.4326567 C82.354977,85.4179915 82.3273714,85.4026597 82.2994251,85.3889944 C82.228196,85.3543312 82.1559444,85.3220011 82.0826705,85.2926707 C82.0704014,85.2880045 82.058473,85.2816718 82.0462039,85.2773389 C81.9610016,85.2440089 81.8740953,85.2153451 81.7858257,85.189681 C81.758561,85.1816818 81.7306147,85.1753491 81.7033499,85.1680165 C81.6403003,85.1513515 81.5769098,85.136353 81.5131785,85.1233543 C81.4808016,85.1170216 81.4487655,85.1110222 81.4163887,85.1056894 C81.3529982,85.0950238 81.2889261,85.086358 81.224854,85.0793587 C81.1952036,85.076359 81.1655532,85.0723594 81.135562,85.0700263 C81.0486556,85.063027 80.9614085,85.0590274 80.8734798,85.0590274 C80.8673452,85.0590274 80.8608698,85.0586941 80.8547353,85.0586941 C80.760672,85.0593607 80.6666086,85.0650268 80.5722045,85.0740259 C80.5435766,85.0766923 80.5152894,85.0810252 80.4870022,85.0846915 C80.4198628,85.093024 80.3530643,85.103023 80.2859249,85.1153551 C80.253548,85.1213545 80.2208303,85.1280205 80.1884535,85.1353531 C80.1223365,85.149685 80.0565603,85.1666833 79.9907842,85.1856814 C79.9614746,85.1940139 79.9325058,85.2016798 79.9031962,85.2110122 C79.8098145,85.2403426 79.7171145,85.2733393 79.625096,85.3120021 C79.616235,85.3156684 79.6077147,85.3203346 79.5985129,85.3243342 C79.5320551,85.352998 79.4673014,85.3836616 79.4039109,85.416325 C79.3820991,85.4273239 79.3609689,85.4393227 79.3398388,85.4506549 C79.2904215,85.4773189 79.2416858,85.5056494 79.1943133,85.5343132 C79.1735239,85.5473119 79.1523938,85.5603106 79.1316044,85.5736426 C79.0808239,85.606306 79.0314065,85.6406359 78.9833525,85.6756324 C78.9693793,85.6859647 78.9543837,85.6959637 78.9404105,85.706296 C78.8800873,85.7516248 78.8218089,85.7992867 78.7655754,85.8482818 C78.7498982,85.8619471 78.7352434,85.8766123 78.719907,85.8906109 C78.6776467,85.929607 78.6357272,85.9689364 78.5958525,86.0099323 C78.5777896,86.0279305 78.5607492,86.046262 78.5437087,86.0645935 C78.5055381,86.1052561 78.4690715,86.1469186 78.4329457,86.1892477 C78.4193134,86.2059127 78.4053402,86.2215778 78.3920487,86.2379095 C78.3443354,86.2972369 78.2990078,86.3575642 78.2560658,86.4198913 C78.2516353,86.4258907 78.2475456,86.4325567 78.2434559,86.4388894 C78.2056261,86.4952171 78.1691595,86.5525447 78.1347378,86.6112055 C78.1238319,86.6302036 78.1132668,86.6492017 78.1023609,86.6681998 C78.0750962,86.7171949 78.0491947,86.7668566 78.0246564,86.8171849 C78.0151138,86.836183 78.0055711,86.8551811 77.9967101,86.8741792 C77.9660373,86.9411725 77.9363869,87.0088325 77.9101446,87.0778256 C77.9098038,87.0788255 77.909463,87.0794921 77.9087813,87.080492 C77.8818574,87.1518182 77.8583416,87.2241443 77.8365298,87.297137 C77.8310769,87.3148019 77.8266463,87.3331334 77.821875,87.3511316 C77.8061978,87.407126 77.7922246,87.4641203 77.7799555,87.5207813 C77.7717761,87.5584442 77.7632558,87.5954405 77.7564397,87.6331034 C76.3090234,86.5078825 74.2921151,86.1772489 72.4749209,86.942839 C72.1187754,87.0928241 71.789213,87.2788055 71.4869153,87.4924508 L70.8714141,87.4101257 C70.7896199,87.1334867 70.6911261,86.8588474 70.5715021,86.5875412 C70.5268561,86.4865513 70.4798244,86.3875612 70.4310887,86.289571 C70.4160931,86.2592407 70.4000751,86.229577 70.3843979,86.1992467 C70.3496353,86.1319201 70.3141912,86.0649268 70.2773838,85.9992667 C70.2586393,85.9652701 70.2392132,85.9316068 70.2197871,85.8986101 C70.1836613,85.8359497 70.1465131,85.7742892 70.1083425,85.7132953 C70.0889164,85.6816318 70.0691494,85.6499683 70.0490417,85.6183048 C70.0064406,85.5526447 69.9624762,85.4879845 69.918171,85.4236576 C69.9014714,85.3999933 69.8854533,85.3753291 69.8687537,85.3516648 C69.8060448,85.2643402 69.7423135,85.1780155 69.6761965,85.0940239 C69.6710844,85.0873579 69.6652906,85.0806919 69.6601785,85.0740259 C69.5995145,84.9977002 69.5374872,84.9227077 69.4740967,84.8490484 C69.4526258,84.8240509 69.4304732,84.8000533 69.4086614,84.7753891 C69.3667419,84.7283938 69.3244815,84.6820651 69.2815396,84.636403 C69.1752071,84.5224144 69.0654666,84.4120921 68.952318,84.3061027 C68.930847,84.286438 68.9086944,84.2674399 68.8875643,84.2477752 C68.7842991,84.1537846 68.6786483,84.0627937 68.5706118,83.9754691 C68.5481184,83.9574709 68.5263066,83.9388061 68.504154,83.9211412 C68.382826,83.8254841 68.2584306,83.7344932 68.1316497,83.6471686 C68.1023401,83.6268373 68.0723489,83.6075059 68.0423577,83.5875079 C67.9169399,83.5038496 67.7898181,83.423191 67.659629,83.3478652 C67.652472,83.3435323 67.6453151,83.3385328 67.6374764,83.3345332 C67.5014936,83.256541 67.3621027,83.1842149 67.2213485,83.1148885 C67.1893125,83.0992234 67.1569356,83.0835583 67.1242179,83.0682265 C66.9841454,83.0018998 66.842028,82.9392394 66.6978657,82.8822451 C66.6770764,82.8739126 66.6566278,82.8669133 66.6361793,82.8592474 C66.5032637,82.8079192 66.3686441,82.7609239 66.2326613,82.7172616 C66.2036925,82.7079292 66.1747238,82.6982635 66.145755,82.6895977 C65.9971622,82.6439356 65.8472062,82.6036063 65.695887,82.5672766 C65.6648733,82.5602773 65.6338597,82.5536113 65.6028461,82.5469453 C65.4593654,82.5146152 65.3152032,82.4862847 65.1696777,82.4629537 C65.1533189,82.4606206 65.1376416,82.4569543 65.1212828,82.4546212 C64.9651922,82.4306236 64.8077384,82.4129587 64.6492622,82.3989601 C64.6144997,82.3959604 64.5800779,82.393294 64.5453154,82.3906276 C64.3858168,82.3789621 64.2256365,82.3712962 64.0651154,82.369963 C64.0538687,82.369963 64.042622,82.3706296 64.0313753,82.3706296 C63.878352,82.3702963 63.7249879,82.3756291 63.571283,82.3852948 C63.5389061,82.3869613 63.5065293,82.3889611 63.4738116,82.3912942 C63.3143129,82.403293 63.1551551,82.4202913 62.9956564,82.4426224 C62.9673692,82.446622 62.9390821,82.4516215 62.9107949,82.4562877 C62.7645878,82.4789521 62.6183807,82.5059494 62.4725144,82.5376129 C62.4486578,82.5429457 62.4248011,82.5469453 62.4009445,82.5526114 C62.2424683,82.5889411 62.0843328,82.6316035 61.9265382,82.6789321 C61.8921165,82.6895977 61.8576948,82.7005966 61.8229323,82.7115955 C61.6620704,82.7622571 61.5022309,82.8172516 61.343073,82.879912 C59.9069035,80.3871613 58.624098,66.5398793 57.9189639,62 L54,62.5822751 C54.1046284,63.3891944 54.9488126,79.1209546 57.695734,86.1115888" id="Fill-12" fill="#C8C6C1"></path>
                            <path d="M64.9610299,91.9265415 C64.9328102,91.8746884 64.9039187,91.8235001 64.8743552,91.7726442 C64.8488231,91.7284361 64.823291,91.6845604 64.796751,91.6410171 C64.7665156,91.5911584 64.7349364,91.541632 64.7033572,91.4927705 C64.6754735,91.4492272 64.6479257,91.4063487 64.6190341,91.3638026 C64.586783,91.3159382 64.5531882,91.2687386 64.5195933,91.221539 C64.4900298,91.1796576 64.4601303,91.1377763 64.4292231,91.0962274 C64.3949563,91.0500249 64.3593457,91.0051521 64.3240711,90.9599468 C64.2914841,90.9190627 64.2599049,90.8775137 64.2269819,90.8376267 C64.1910354,90.7940834 64.154081,90.7512049 64.1174626,90.7089912 C64.0825239,90.6687718 64.0482572,90.62822 64.0126466,90.5886654 C63.9824112,90.5550939 63.950832,90.5228519 63.9199247,90.4896128 C63.8718841,90.4387569 63.8241794,90.3879009 63.7751308,90.3383746 C63.7408641,90.3041383 63.7052535,90.2708991 63.6703148,90.2369952 C63.6226101,90.1911251 63.5755773,90.1455875 63.5265288,90.1013794 C63.4889025,90.0668107 63.4499324,90.0332392 63.4112983,89.9996676 C63.3635936,89.9581187 63.3155529,89.9165697 63.2665044,89.8760179 C63.2258546,89.8424464 63.184197,89.809872 63.1425393,89.7769653 C63.0938268,89.7387402 63.0451142,89.7005152 62.9953938,89.6632874 C62.9520564,89.6310454 62.9077111,89.5998006 62.8640378,89.5682234 C62.8143174,89.5329899 62.7639251,89.4980887 62.7131968,89.4638524 C62.6675078,89.4332724 62.6218188,89.4033572 62.5757938,89.3741067 C62.5243936,89.3411999 62.4726575,89.308958 62.4202495,89.2773808 C62.3732167,89.2491275 62.3255119,89.2212066 62.2774713,89.1939505 C62.2247273,89.1637028 62.1719834,89.13412 62.1178956,89.1055343 C62.069183,89.0792754 62.0197986,89.0533488 61.9704141,89.0280871 C61.9159904,89.0004986 61.8608948,88.9739073 61.8057992,88.9473159 C61.7557429,88.9237161 61.7053505,88.9001163 61.6546223,88.8778461 C61.5981829,88.8525843 61.5414076,88.8286522 61.4839603,88.80472 C61.4332321,88.7837793 61.3821678,88.7625062 61.3304317,88.7425627 C61.2719766,88.7196277 61.2128497,88.6986871 61.1533867,88.677414 C61.1016506,88.6588001 61.0502505,88.6401861 60.9981784,88.6229018 C60.9373717,88.6032907 60.8758931,88.5846767 60.8144144,88.5660628 C60.7623424,88.5504404 60.7106063,88.5344856 60.6581983,88.5198604 C60.5950399,88.502576 60.5308737,88.487286 60.4670434,88.4713312 C60.4149714,88.458368 60.3632353,88.4450723 60.3111632,88.4334386 C60.2446454,88.4188134 60.1771197,88.4061825 60.1099299,88.3932192 C60.0592016,88.3835799 60.0081374,88.3729433 59.9570732,88.3643011 C59.886188,88.3523351 59.814295,88.3430281 59.742402,88.3330563 C59.6936894,88.3264085 59.6456487,88.3184311 59.5969361,88.3127805 C59.5166444,88.3034735 59.4350088,88.2971581 59.3533733,88.2901778 C59.3123876,88.2868539 59.2720737,88.2822004 59.231088,88.2795413 C59.1081307,88.2715639 58.9845016,88.2662456 58.8598646,88.2649161 C58.7614316,88.2632541 58.6636705,88.2659132 58.5665813,88.26824 C58.4792346,88.2715639 58.3922239,88.2755526 58.3058851,88.2812033 L58.3008458,88.2812033 C57.98539,87.5565897 57.690427,86.8372943 57.414613,86.1276384 C54.706866,79.1560578 54.6571456,62.9183979 54.5540094,62.1136779 L58.0394777,62 L51.2549926,62.2210404 C51.2549926,62.2210404 49.5581154,77.8387901 47.6139799,83.1557254 C47.226631,84.2157221 46.7993042,85.2720625 46.328976,86.2815356 C44.4066772,84.6019611 41.4748524,84.5813528 39.5263496,86.3220874 C39.0654279,86.7339206 38.6985718,87.2095729 38.4254455,87.7237826 C36.6150177,86.8741898 34.3893571,87.1278046 32.8093901,88.5391391 C32.7321219,88.6079442 32.6588851,88.6794083 32.5866561,88.7518697 C32.4532845,88.3842446 32.2476838,88.0352335 31.9668307,87.7271065 C30.8098231,86.4596975 28.8334366,86.3596477 27.552128,87.5040718 C26.8809024,88.1040386 26.5368909,88.9263753 26.5251327,89.7556922 C24.7459481,88.9971747 22.6072983,89.2763836 21.075036,90.6448396 C20.6285601,91.0440419 20.2701028,91.5040718 20,92 L65,92 C64.9872339,91.9757354 64.9744679,91.950806 64.9610299,91.9265415" id="Fill-13" fill="#FFFFFE"></path>
                            <path d="M42,87.3258721 C41.93842,87.3047381 41.879062,87.2764459 41.817482,87.2587206 C41.7552672,87.2430406 41.6971789,87.2225883 41.6343292,87.2140666 L41.5422767,87.1973639 L41.4492719,87.1905465 C41.3880094,87.1833883 41.3264294,87.1898648 41.2658017,87.1895239 C41.2048566,87.1915691 41.1445463,87.2021361 41.0848708,87.2096353 C41.0261477,87.2253153 40.9664722,87.2324736 40.909971,87.2542893 C40.852835,87.273378 40.7963338,87.2921259 40.7423719,87.318032 C40.6865056,87.339166 40.6350831,87.3705261 40.5833433,87.3995001 C40.531286,87.4281332 40.4843074,87.4666515 40.4357418,87.4993751 C40.3913026,87.5399386 40.342737,87.5740257 40.3024243,87.6186797 C40.260842,87.6612885 40.2179899,87.7015112 40.1821212,87.7499148 C40.1640281,87.773094 40.1437131,87.7949097 40.1265722,87.8194523 L40.0773717,87.8941029 C40.0421378,87.9418248 40.018966,87.9984093 39.9894457,88.0498807 L39.9789708,88.0696512 L39.9783359,88.0710147 C39.979923,88.0672651 39.9742094,88.0791955 39.982145,88.0635155 L39.9815101,88.0641973 L39.9805579,88.0669242 L39.9780185,88.0730599 L39.9729397,88.0846495 L39.9529421,88.1316896 C39.9411975,88.1613453 39.922787,88.1974776 39.9173908,88.2216794 C39.9008848,88.2745143 39.8824743,88.3259857 39.8691426,88.3859789 C39.8523192,88.4429042 39.8466056,88.5028974 39.8351784,88.5611862 L39.7669325,88.9098966 L39.4825219,88.6951483 C39.4237988,88.6508351 39.3679324,88.6034542 39.3085744,88.5611862 L39.2171567,88.5025565 L39.1717653,88.4729008 L39.1606555,88.4654017 L39.1590684,88.464379 C39.1501805,88.459266 39.1704956,88.4711965 39.1679562,88.469833 L39.1673214,88.4694921 L39.1638297,88.4677878 L39.1571638,88.464379 L39.1305003,88.4504034 L39.0235289,88.3955232 L38.9698845,88.3679127 L38.922906,88.3501875 C38.8594215,88.3266674 38.8006983,88.2983752 38.7295957,88.2820134 L38.6277031,88.2526986 C38.593104,88.2441768 38.5581875,88.2400864 38.5235885,88.2336098 C38.488672,88.2281559 38.4543904,88.2189524 38.4191564,88.2155437 L38.314407,88.2066811 C38.2442566,88.1971367 38.1734714,88.2039541 38.103321,88.2036132 C38.0328532,88.2036132 37.9633377,88.2186115 37.8931873,88.2233837 C37.8239892,88.2363368 37.7547911,88.2503125 37.6859104,88.2670151 C37.6192517,88.2905352 37.5494187,88.3051926 37.4843471,88.3348483 C37.4192755,88.3627997 37.3513471,88.3859789 37.2897671,88.4227929 L37.1948578,88.4732417 C37.1640678,88.4916487 37.1345475,88.5127826 37.1043923,88.5325531 C37.0428124,88.5700489 36.9859937,88.6150437 36.9294925,88.6610612 C36.8704519,88.7033292 36.8218863,88.7595728 36.767607,88.8093398 C36.7145975,88.8597887 36.6701583,88.9197818 36.6200056,88.9743211 C36.5739793,89.0329508 36.5330318,89.0956709 36.4882752,89.1563459 L36.3670198,89.3206454 L36.2108479,89.2309965 C36.1657739,89.2047495 36.122287,89.1747529 36.0749911,89.1519146 C36.0292822,89.1256675 35.9803992,89.1072605 35.9321509,89.0857857 C35.8823156,89.0697648 35.8331151,89.0499943 35.7816927,89.0387456 C35.7312225,89.0237473 35.6788478,89.0172708 35.6271079,89.0077264 C35.5747332,89.0032951 35.522041,88.9957959 35.4690315,88.9968185 C35.4160219,88.9937507 35.3630123,88.998182 35.3093679,88.9998864 C35.2566758,89.0070447 35.202714,89.0107942 35.1503392,89.0237473 C35.0966948,89.0322691 35.0452724,89.0499943 34.9925802,89.0643109 C34.9421101,89.0844222 34.8894179,89.100784 34.8402174,89.1263493 C34.788795,89.1474832 34.7405468,89.1754346 34.6910288,89.2027042 C34.6665873,89.2159982 34.6437329,89.2330417 34.6196088,89.2483809 L34.5751696,89.2613339 L34.5618379,89.2538348 L34.5615205,89.2541757 C34.5637424,89.2521304 34.5561243,89.2596296 34.5662818,89.2497443 L34.5650121,89.250767 L34.571678,89.2630383 L34.5675515,89.2753096 L34.5519978,89.2930349 L34.4136016,89.4126804 C34.368845,89.4518805 34.3361505,89.4961936 34.295203,89.5384615 C34.2761576,89.5602772 34.2545729,89.5807295 34.2371146,89.6045904 L34.186327,89.679241 C34.1545848,89.7307124 34.1114153,89.7767299 34.0869738,89.8333144 L34,90 C34.0146014,89.9383025 34.0304726,89.8766049 34.0469785,89.8138848 C34.0599929,89.7498012 34.090148,89.6935576 34.1139547,89.6332235 L34.1526802,89.5435746 C34.1666468,89.5142597 34.1853748,89.487331 34.2021982,89.4590387 C34.2367972,89.4041586 34.2701266,89.3417793 34.3088521,89.2920123 L34.428203,89.1505511 L34.4431219,89.1328258 L34.45074,89.1239632 L34.4526445,89.121918 L34.4434393,89.1089649 L34.4396302,89.0908988 L34.4440741,89.0864674 L34.4894655,89.0653335 C34.5135897,89.0438587 34.5415228,89.0261334 34.5665992,89.0056812 C34.6170694,88.9651176 34.670079,88.9262584 34.7246756,88.8914896 C34.77832,88.8543347 34.8379955,88.8277468 34.8951315,88.7960459 C34.9541721,88.7701398 35.0135301,88.7418475 35.0754275,88.722077 C35.1363727,88.698557 35.1998572,88.6842404 35.2630242,88.6671969 C35.3268262,88.6559482 35.3909455,88.6409499 35.4563346,88.6372003 C35.5210888,88.6293603 35.5864778,88.6317464 35.6521843,88.6310647 C35.7172559,88.6358368 35.7832798,88.6378821 35.8483514,88.6498125 C35.9137404,88.6576525 35.9778598,88.6750369 36.042614,88.6900352 C36.1060985,88.7101466 36.1705353,88.7282127 36.2321152,88.7548006 C36.2949649,88.7779798 36.3546403,88.8107033 36.4146332,88.8417225 L36.1375233,88.9160323 C36.1854541,88.8393364 36.2314804,88.7599136 36.2829028,88.6849222 C36.3387692,88.6140211 36.3892394,88.5369844 36.4514542,88.4715373 C36.5143039,88.4071128 36.5723922,88.3362118 36.6419077,88.2796273 C36.7092013,88.219975 36.7761774,88.1593001 36.8510892,88.1105556 C36.8879102,88.0849903 36.9237789,88.0584025 36.9612348,88.0338598 L37.077094,87.9677309 C37.152958,87.92035 37.2351704,87.8879673 37.3157957,87.8511533 C37.3967385,87.8139984 37.4824426,87.7932053 37.5659247,87.7642313 C37.6506765,87.7420748 37.7370154,87.7236678 37.8230369,87.707306 C37.9103281,87.6984434 37.9973019,87.6824225 38.0852279,87.6827633 C38.1728366,87.6834451 38.2607626,87.6776503 38.3477364,87.6892399 L38.4788319,87.7018521 C38.5223188,87.707306 38.5654882,87.7175321 38.6083403,87.7260539 C38.6515097,87.7355982 38.6946792,87.7427565 38.7372138,87.7543461 L38.8632306,87.7942279 C38.9463953,87.8167254 39.0324168,87.8579707 39.1168512,87.8947847 L39.1800183,87.9230769 L39.232393,87.9534144 L39.336825,88.0137484 L39.3631711,88.0287467 L39.3857081,88.0423815 L39.3996746,88.0519259 L39.4539539,88.0907851 L39.5625124,88.1691853 C39.6326628,88.2237246 39.6970996,88.2867856 39.7640757,88.3457562 L39.4114193,88.4797182 C39.4298298,88.4043859 39.4437964,88.3280309 39.469825,88.2550846 C39.4907749,88.1824793 39.5215649,88.106806 39.5548943,88.033178 C39.5710828,87.9929553 39.5866365,87.970117 39.6028251,87.9380752 L39.6269492,87.8934212 L39.6431377,87.8627429 L39.658374,87.8392228 C39.7005912,87.7768435 39.7370948,87.7110556 39.7862953,87.6544711 L39.8561282,87.56789 C39.8802524,87.5395978 39.9072333,87.5147142 39.9326271,87.4877855 C39.9824624,87.4335871 40.0389636,87.3875696 40.0954648,87.341893 C40.1513312,87.2951937 40.2151331,87.2607658 40.2738563,87.2205431 C40.3376582,87.1885013 40.3989208,87.1520282 40.4646272,87.1264629 C40.5300163,87.1005568 40.594453,87.0732871 40.6623815,87.0572662 C40.6957108,87.0484036 40.7287228,87.0371549 40.762687,87.0306783 L40.864897,87.0146574 C40.932508,87.0017044 41.0020236,87.0051131 41.0693171,87 C41.137563,87.0030678 41.205174,87.0037496 41.2721501,87.0132939 C41.3391263,87.0238609 41.4054676,87.0334053 41.4699044,87.0548801 L41.5660834,87.0835132 L41.6590882,87.1213498 C41.7216204,87.1431655 41.7797088,87.1816839 41.8377971,87.2127031 C41.8949331,87.2461084 41.9460382,87.2876946 42,87.3258721" id="Fill-14" fill="#C8C6C1"></path>
                            <path d="M58,91 L57.9248641,90.841717 C57.8964084,90.7910798 57.866354,90.7427901 57.8378983,90.694165 C57.8059256,90.647552 57.7720345,90.601945 57.7397421,90.556338 C57.7045721,90.5124078 57.6665246,90.4714956 57.6303954,90.4295775 C57.5917084,90.3900067 57.5498242,90.3541247 57.5108174,90.31556 C57.4689332,90.2803488 57.4254503,90.2474849 57.3832463,90.213615 L57.247682,90.1257545 L57.1057231,90.0526492 L56.9586486,89.9939638 L56.8083769,89.9496982 C56.7572205,89.9406439 56.7067036,89.9292421 56.6555473,89.9211938 C56.6040712,89.917505 56.5529148,89.9111335 56.5017585,89.908786 C56.4502824,89.9101274 56.3991261,89.9091214 56.3482895,89.9118042 C56.2974528,89.9188464 56.2466162,89.9215292 56.1964191,89.9289068 L56.0474262,89.9604292 L55.9025898,90.0070423 L55.7609507,90.0523139 L55.692529,89.8997317 L55.6215496,89.7427901 C55.5956517,89.6918176 55.567196,89.6421865 55.5400192,89.59222 C55.4805499,89.4953052 55.4191623,89.4004024 55.3485026,89.3125419 L55.3229244,89.2790074 L55.3242033,89.2709591 L55.3264414,89.2649229 L55.325802,89.2639168 C55.3283598,89.2669349 55.3146115,89.259222 55.3274006,89.2746479 L55.3174891,89.2682763 L55.3008633,89.2521797 L55.2388362,89.1851107 C55.1979111,89.1408451 55.1553874,89.0908786 55.1163807,89.0600268 L54.9984014,88.954393 L54.8647554,88.8564722 C54.8222317,88.8212609 54.7723543,88.7974514 54.7259938,88.7686117 C54.6789939,88.7401073 54.6326335,88.7109323 54.5824363,88.6901408 C54.5325589,88.6676727 54.4845998,88.6415158 54.4337632,88.6220657 L54.2802941,88.5677398 C54.2291378,88.5496311 54.1754236,88.5405768 54.1236278,88.5258216 C54.0715123,88.5100604 54.0181179,88.5020121 53.9644037,88.4949698 C53.8582543,88.4741784 53.7498668,88.4735077 53.6424385,88.4681422 C53.5346904,88.4738431 53.4266226,88.4741784 53.3204732,88.4946345 L53.2402217,88.5057009 L53.1615688,88.5254863 C53.1094533,88.5399061 53.0557391,88.5482897 53.0049025,88.5674044 L52.8514334,88.621395 C52.8012363,88.6415158 52.7529575,88.6673374 52.7033998,88.6894702 C52.6528829,88.7105969 52.6062027,88.7394366 52.5595225,88.7682763 C52.5138016,88.7984574 52.4632847,88.8205902 52.420761,88.8564722 L52.2877544,88.9547284 L52.2794415,88.9610999 L52.2772035,88.9627767 L52.2762443,88.9634474 C52.2711286,88.9678068 52.2819994,88.9580818 52.2804007,88.9594232 L52.2762443,88.963112 L52.2592987,88.9782025 L52.2250879,89.0083836 L52.1573058,89.0687458 C52.1205371,89.1076459 52.0824896,89.1425218 52.0450815,89.1834339 C52.0092721,89.2260228 51.9689865,89.2652582 51.9360546,89.3112005 C51.9018438,89.3558015 51.8669935,89.3997317 51.8366194,89.4473508 C51.8040072,89.4936284 51.7745923,89.5419182 51.7458169,89.591214 C51.6869871,89.6884641 51.6387083,89.7924212 51.5936268,89.898055 L51.4663754,90.194165 L51.2975594,89.9463447 L51.2857295,89.9292421 L51.293403,89.9151576 L51.3033145,89.9040912 L51.3029948,89.9034205 C51.3157839,89.9185111 51.306192,89.9074447 51.3090696,89.9107981 L51.3071512,89.908786 L51.289886,89.9101274 L51.2569541,89.8809524 L51.1994032,89.8152247 C51.180859,89.7900738 51.1623148,89.7746479 51.1447298,89.7572099 L51.0919748,89.7042254 C51.0587232,89.6673374 51.0130022,89.6368209 50.9739955,89.601945 C50.9349888,89.566063 50.8889481,89.5405768 50.8464244,89.508719 C50.8039007,89.4771965 50.7556219,89.4557344 50.7102206,89.4282361 C50.6638602,89.4020791 50.6139827,89.3849765 50.5657039,89.3625084 C50.5171054,89.341717 50.4656293,89.3289738 50.4151124,89.3115359 C50.3642758,89.2964453 50.3115208,89.2887324 50.2594053,89.2749832 C50.2069701,89.2659289 50.1535756,89.2608987 50.1005009,89.2535211 C50.0467867,89.250503 49.9930726,89.2501677 49.9390387,89.2481556 L49.7766173,89.260228 L49.6148353,89.2877264 L49.454652,89.331992 L49.2986252,89.3926895 L49.146435,89.4684775 L49,89.5596915 L49.1272514,89.4386318 L49.2672919,89.3316566 C49.3165299,89.2997988 49.368006,89.2709591 49.4188426,89.2404427 C49.4715976,89.2142857 49.5259512,89.1904762 49.5799851,89.1656606 C49.6356176,89.1455399 49.6918896,89.1264252 49.748801,89.1079812 L49.9233721,89.0704225 C49.9825216,89.064051 50.0419908,89.0560027 50.1020995,89.0509725 C50.1618885,89.0509725 50.222317,89.0479544 50.2824257,89.0503018 C50.3425344,89.0560027 50.4032825,89.0596915 50.4630715,89.0700872 C50.522221,89.0831657 50.5829692,89.09222 50.6414793,89.1093226 C50.6993499,89.1287726 50.7597783,89.1431925 50.81637,89.1673374 C50.8723223,89.1928236 50.9314718,89.2129443 50.9855057,89.2437961 C51.0392199,89.2753186 51.0967708,89.3008048 51.1472876,89.3380282 C51.1981243,89.3762575 51.2508792,89.4071093 51.2997975,89.452381 L51.3742939,89.5181087 C51.3992327,89.5405768 51.4244911,89.5627096 51.4423958,89.5838364 L51.5021848,89.647552 L51.5319194,89.6794098 L51.5392732,89.6874581 L51.5411915,89.6894702 L51.5491847,89.6995305 L51.5530214,89.70389 L51.5670894,89.7219987 L51.2713418,89.7706237 C51.314505,89.6445339 51.3621443,89.51945 51.4225727,89.4004024 C51.4513482,89.3400402 51.4830012,89.2813548 51.5184909,89.2250168 C51.5514228,89.1666667 51.58979,89.1123407 51.6278376,89.0576794 C51.6642865,89.0016767 51.7084088,88.952381 51.7490142,88.8993964 C51.7912182,88.8474178 51.8404561,88.797116 51.8868166,88.7464789 L51.9475647,88.6770624 L51.9750613,88.6391683 L51.9916871,88.6237425 L51.9958435,88.6197183 L52.0111905,88.6170355 L52.0233401,88.6123407 L52.1787275,88.4899396 C52.2286049,88.4463447 52.2877544,88.4161636 52.3424278,88.3792757 C52.3974209,88.343729 52.4533731,88.3081824 52.5131621,88.2810195 C52.5719919,88.2525151 52.6298625,88.2206573 52.690291,88.195171 L52.8738143,88.1257545 C52.9348822,88.1016097 52.9994671,88.0905433 53.0624534,88.07277 L53.1574123,88.0489604 L53.2539699,88.0338699 C53.3825003,88.0093897 53.5126292,88.0053655 53.6427582,88 C53.7728871,88.0063716 53.9033358,88.009725 54.0315464,88.0348759 C54.0961313,88.0442656 54.1600767,88.0549966 54.2227433,88.073776 C54.2857295,88.0915493 54.3499947,88.1046278 54.4110626,88.1274313 L54.5942662,88.1971831 C54.6546947,88.2226693 54.7122456,88.2545272 54.7713951,88.2833669 C54.8308643,88.3105298 54.8864969,88.3464118 54.9418097,88.3819584 C54.996483,88.4185111 55.0540339,88.4507042 55.1042311,88.4939638 L55.2586593,88.6173709 L55.406693,88.7615694 C55.4597677,88.8105298 55.4930193,88.8574782 55.5329852,88.9050973 L55.5911755,88.9758551 L55.6055633,88.9936284 L55.612917,89.0023474 L55.6202707,89.0117371 L55.6212299,89.0130785 L55.6228285,89.0154259 L55.6266652,89.0207914 L55.6548012,89.0620389 C55.7324949,89.1696848 55.7999574,89.2850436 55.8597463,89.4040912 C55.8872429,89.4647887 55.9160183,89.5248156 55.9419162,89.5861838 L56.0103378,89.7739772 L55.8002771,89.667002 L55.979644,89.6244131 C56.0400725,89.6150235 56.1011404,89.6083166 56.1618885,89.6006036 C56.2226367,89.5969148 56.2837046,89.5962441 56.3444527,89.5959088 C56.4052009,89.5989269 56.4659491,89.6066398 56.5260578,89.6120054 C56.5858467,89.621395 56.645316,89.6351442 56.7044655,89.6465459 C56.7626559,89.6623072 56.8202068,89.6814219 56.8777576,89.6988598 C56.9340296,89.7209926 56.9890227,89.7454728 57.0443355,89.7682763 C57.0980497,89.79611 57.1508046,89.8259557 57.2026004,89.8554661 L57.3506341,89.9587525 C57.3963551,89.9979879 57.4427155,90.0362173 57.4874774,90.0761234 C57.5290419,90.1197183 57.5718853,90.1619718 57.6115315,90.2062374 C57.6489396,90.2535211 57.6863477,90.3001341 57.7211979,90.3487592 C57.7528509,90.4000671 57.7864223,90.4493628 57.8158372,90.501006 C57.8420548,90.5549966 57.8708302,90.6069752 57.8948098,90.6616365 C57.915592,90.7183099 57.9373335,90.7736419 57.9561974,90.8293092 L58,91" id="Fill-15" fill="#C8C6C1"></path>
                            <path d="M23.6029303,90.5839425 L20.6032882,90.9554011 C20.6032882,90.9554011 10.4511418,84.5680561 0.00277280645,94.8817017 L0,106 L112,106 C112,106 109.308039,98.1794873 100.258334,98.1794873 C91.2089627,98.1794873 90.4990574,101.143832 90.4990574,101.143832 C90.4990574,101.143832 87.127592,91.510322 78.0778867,95.7711098 C78.0778867,95.7711098 74.5290286,87.6199465 65.3132889,90.8783191 C65.3132889,90.8783191 27.1517885,88.3607711 23.6029303,90.5839425" id="Fill-16" fill="#FFFFFE"></path>
                            <path d="M22,95.3463723 C21.9135062,95.3239127 21.8292885,95.2926514 21.7424695,95.2741374 C21.6550001,95.2586585 21.5727335,95.2368059 21.484939,95.2298252 L21.3558485,95.2146498 L21.2261078,95.2110077 C21.1405894,95.2055446 21.0550711,95.2164709 20.9705282,95.2198095 C20.8859854,95.2249691 20.802418,95.241055 20.7198262,95.2531953 C20.6388601,95.2753514 20.5562683,95.2868847 20.4785539,95.3166285 C20.399864,95.3427302 20.3224748,95.3682248 20.2483372,95.4022177 C20.1719235,95.4307474 20.1020131,95.4714175 20.0311271,95.509356 C19.9602412,95.5466874 19.8971592,95.5955522 19.8308256,95.6377398 C19.7709953,95.6893361 19.705312,95.7330413 19.6516598,95.7888867 C19.5960566,95.8429111 19.5381773,95.8939005 19.4910284,95.953995 C19.466641,95.9834353 19.4399775,96.010751 19.417216,96.0414053 L19.3528334,96.1342787 C19.3060096,96.1937662 19.2767448,96.263573 19.2383754,96.3273097 L19.2247184,96.3515903 L19.2240681,96.3534114 C19.2260191,96.3491623 19.2182151,96.3634271 19.2286204,96.3443061 L19.2282952,96.3449131 L19.2266694,96.3485552 L19.2234178,96.3558394 L19.2172396,96.3704078 L19.1918768,96.4280743 C19.1772444,96.4651023 19.1531822,96.5094144 19.1466789,96.5391582 C19.1265187,96.6041089 19.1037571,96.6672385 19.0884744,96.7406874 C19.0676638,96.8104942 19.0631115,96.8830326 19.0501049,96.9540534 L18.973366,97.379875 L18.5659346,97.1349441 C18.482042,97.0842583 18.4014012,97.0299304 18.3171835,96.9819762 L18.1864672,96.9155079 L18.1217594,96.8821221 L18.1058264,96.8736239 L18.1035502,96.8724098 C18.0908688,96.8666432 18.1198084,96.8799975 18.1165568,96.87848 L18.1152561,96.877873 L18.1103787,96.8760519 L18.1009489,96.8724098 L18.0629046,96.8569309 L17.9110526,96.7959258 L17.8352892,96.7655751 L17.7686305,96.7467576 C17.6795353,96.7215664 17.595968,96.6900016 17.4961424,96.6739157 L17.3527447,96.6438684 C17.3042951,96.6353702 17.2551952,96.6323351 17.2067457,96.6262649 C17.157971,96.6214088 17.1098466,96.6123036 17.0607467,96.609572 L16.9137722,96.6047159 C16.8158976,96.5965212 16.7176978,96.6086615 16.6201484,96.6120001 C16.5219486,96.6156422 16.426025,96.6371912 16.3284756,96.6469035 C16.2328771,96.6660245 16.1369535,96.686663 16.0423305,96.7103366 C15.9506341,96.7425085 15.8540601,96.763754 15.7652901,96.8029065 C15.6758698,96.840238 15.5825475,96.8718028 15.498655,96.9194535 L15.3689142,96.9853148 C15.3272932,97.0095954 15.2872979,97.0366076 15.246002,97.0621022 C15.1624346,97.1106635 15.0856957,97.16833 15.0096071,97.226907 C14.9292914,97.2812349 14.8645836,97.3519523 14.7917467,97.4147784 C14.7205356,97.4788186 14.662006,97.553785 14.5946969,97.6223778 C14.533891,97.6955232 14.4799137,97.7735247 14.4207337,97.8494017 L14.2604274,98.054573 L14.0383399,97.9541119 C13.9742824,97.9249751 13.9121759,97.8903752 13.845192,97.8654876 C13.780159,97.8360473 13.7108989,97.8163193 13.6426143,97.7929492 C13.5727039,97.7759528 13.5031186,97.7550107 13.430932,97.7440844 C13.3597209,97.7286055 13.286884,97.7234459 13.2140471,97.7143407 C13.1405599,97.7116091 13.0670726,97.7052354 12.9932602,97.7094845 C12.9191226,97.708574 12.8456354,97.7164652 12.7711727,97.7213213 C12.6980106,97.7328546 12.6232227,97.7401388 12.5510361,97.7586528 C12.4768985,97.7717036 12.4063378,97.7959843 12.333826,97.8160158 C12.2642407,97.843028 12.191729,97.8657911 12.1244199,97.899177 C12.0538591,97.9270997 11.9881758,97.9635206 11.9208667,97.999031 C11.8873747,98.0166345 11.8564841,98.0384871 11.8239676,98.0582151 L11.7625115,98.076122 L11.7436519,98.0679273 L11.7430016,98.0685343 C11.745928,98.0658028 11.7358479,98.0752115 11.7491797,98.0627677 L11.747879,98.0639817 L11.757634,98.0785501 L11.7524313,98.0937255 L11.731946,98.1158816 L11.5456265,98.2676355 C11.4851459,98.3177143 11.441899,98.3732562 11.3869461,98.4263701 C11.3615833,98.4536858 11.3329688,98.479484 11.3095569,98.5095313 L11.2425729,98.6024047 C11.201277,98.6661413 11.1433977,98.7241113 11.112507,98.7942217 L11,99 C11.0172337,98.9250336 11.0360933,98.8491566 11.0559283,98.7729761 C11.0705608,98.6943676 11.1095805,98.6248643 11.1398209,98.5505048 L11.1889207,98.440028 C11.2068048,98.4039105 11.2315173,98.3702212 11.2533034,98.3350143 C11.2988265,98.266725 11.3420734,98.189634 11.3931242,98.1271114 L11.5521298,97.9498628 L11.5719649,97.9277067 L11.582045,97.9167804 L11.5846463,97.9140488 L11.5709894,97.8985699 L11.5648113,97.8770209 L11.5706642,97.8715577 L11.6330959,97.8433315 C11.6652872,97.8160158 11.7033315,97.7932527 11.7371486,97.7674545 C11.8054332,97.7155547 11.8772946,97.6660829 11.9514322,97.6211637 C12.0242691,97.572906 12.1058855,97.5373956 12.1835999,97.496422 C12.2645659,97.4618221 12.3458571,97.4244906 12.4310503,97.3974784 C12.5146176,97.3656101 12.602087,97.3452751 12.6892311,97.321298 C12.7773508,97.3043015 12.8661208,97.283056 12.9568418,97.2748613 C13.0469124,97.2621139 13.1379586,97.2612034 13.2293299,97.2572578 C13.320376,97.2593824 13.4123976,97.2587753 13.5031186,97.2697016 C13.5951403,97.2757718 13.6852109,97.2933752 13.7759319,97.3082471 C13.8653522,97.3291892 13.955748,97.3477032 14.0428922,97.3768399 C14.1323125,97.401424 14.2165302,97.437845 14.3020485,97.4721414 L13.9196547,97.5768516 C13.9827367,97.4815501 14.042567,97.3829101 14.1102013,97.2897331 C14.1840137,97.2008053 14.2506725,97.1048969 14.3339147,97.0226462 C14.4178072,96.9410026 14.4951964,96.8523783 14.5891691,96.7801434 C14.6795649,96.7042665 14.7699607,96.6277825 14.8717373,96.5646528 C14.9214875,96.531874 14.9702622,96.4975776 15.0209879,96.4663163 L15.1786928,96.3801201 C15.2820952,96.3188115 15.3949274,96.2751063 15.5051583,96.2265451 C15.6157143,96.1770733 15.7340743,96.147633 15.8485323,96.108177 C15.9659168,96.0769157 16.0849271,96.050207 16.2042626,96.0259264 C16.3248988,96.0104475 16.4452097,95.9867739 16.5674717,95.9825248 C16.6897337,95.9785791 16.8116705,95.9670458 16.9336073,95.9767581 L17.1170002,95.9849528 C17.177806,95.9892019 17.2379615,95.9992177 17.2984422,96.0074124 C17.3589228,96.0168211 17.4197286,96.0228913 17.4792338,96.0350316 L17.6567738,96.0766122 C17.7738331,96.0996788 17.8957699,96.1449015 18.0154305,96.185268 L18.1048509,96.2162258 L18.1793136,96.2502187 L18.3649827,96.3345939 L18.3974992,96.3497693 L18.4170091,96.3606956 L18.4947235,96.4050077 L18.6498271,96.493632 C18.7506282,96.5564581 18.8436253,96.6296035 18.9398741,96.6972858 L18.4557037,96.877873 C18.4778149,96.7856066 18.4930976,96.6924297 18.5256141,96.6028948 C18.5506518,96.5136635 18.5896716,96.4210936 18.6322682,96.3297378 C18.6527536,96.2799625 18.6732389,96.2517362 18.6940495,96.2122802 L18.7252653,96.1570418 L18.746401,96.1191033 L18.7665612,96.089663 C18.8218393,96.0122685 18.8693133,95.9303214 18.9346714,95.8596041 L19.0273434,95.7509482 C19.0595347,95.7154378 19.0959532,95.683873 19.1297703,95.6501836 C19.1967543,95.5818944 19.2728428,95.5230138 19.3492566,95.4650438 C19.4243696,95.4055563 19.5111886,95.3606371 19.5911792,95.3090408 C19.6779982,95.2665497 19.7618907,95.219506 19.8516362,95.1849061 C19.9413817,95.1503062 20.0298265,95.1138852 20.1231488,95.0908186 C20.1696473,95.0783748 20.2148453,95.0631994 20.2619941,95.0534872 L20.4034408,95.028903 C20.4967631,95.009782 20.5936622,95.0100855 20.6873097,95.0000698 C20.7822578,95.0006768 20.8765556,94.9976417 20.9705282,95.0058364 C21.0641757,95.0152452 21.1571728,95.0234399 21.2475687,95.0458995 L21.3831624,95.0753397 L21.514529,95.1166168 C21.6026486,95.1393799 21.6858908,95.183085 21.7681575,95.2179884 C21.8494487,95.2550164 21.9229359,95.3026671 22,95.3463723" id="Fill-17" fill="#C8C6C1"></path>
                            <path d="M53,102 L52.8663601,101.736528 C52.8160764,101.652243 52.762418,101.571609 52.7121343,101.490642 C52.6554386,101.412663 52.5950307,101.336674 52.5373226,101.260685 C52.4748898,101.187683 52.4070574,101.119658 52.3429373,101.049642 C52.2740925,100.983608 52.1995107,100.923547 52.1303284,100.859835 C52.056084,100.800438 51.9784649,100.74635 51.9035456,100.689607 L51.6629263,100.543271 L51.410158,100.421489 L51.1489528,100.3236 L50.881673,100.249934 C50.7905549,100.234338 50.7004493,100.215755 50.6096686,100.202482 C50.5182131,100.195846 50.4274325,100.185227 50.3363144,100.181245 C50.2448588,100.183568 50.1540782,100.181909 50.063635,100.186554 C49.9735293,100.198168 49.8830862,100.202814 49.793993,100.21476 L49.5290755,100.267521 L49.2712451,100.345169 L49.0194891,100.420494 L48.8976609,100.166313 L48.7717829,99.9048314 C48.7255489,99.8198832 48.6749278,99.7375896 48.6270064,99.6539687 C48.5210394,99.4926998 48.4120352,99.3344173 48.2864947,99.1880807 L48.2409356,99.1320016 L48.2429605,99.1183966 L48.2473477,99.1084417 L48.2456603,99.1067826 C48.2503849,99.1120919 48.2260868,99.0988187 48.2486976,99.1247014 L48.2311489,99.113751 L48.2017886,99.0872047 L48.0914345,98.9750465 C48.01854,98.9017122 47.9432832,98.8180913 47.8737635,98.7673215 L47.6638544,98.5904566 L47.4266099,98.4275285 C47.3506781,98.3691266 47.2622598,98.3293071 47.1795786,98.2811919 C47.0962224,98.2337404 47.0138786,98.1849615 46.9241104,98.1504513 C46.8360296,98.1129546 46.7503111,98.069485 46.6602054,98.0366339 L46.3875261,97.9463764 C46.296408,97.9165118 46.2012402,97.9012477 46.1084348,97.8770242 C46.0159668,97.8504778 45.9211364,97.8372047 45.8259687,97.8252588 C45.636983,97.7904168 45.4446226,97.7897531 45.2532746,97.7801301 C45.0619266,97.7897531 44.8695661,97.7904168 44.6809179,97.8245952 L44.5378288,97.8435094 L44.3981144,97.8760287 C44.3056464,97.9002522 44.2101411,97.9138572 44.1200354,97.9463764 L43.8470186,98.0359703 C43.7575879,98.069485 43.6718694,98.1122909 43.5837886,98.1497876 C43.4940204,98.1842978 43.4113391,98.2327449 43.3283204,98.2808601 C43.2469891,98.3309663 43.1572209,98.3681311 43.0816266,98.4275285 L42.8447196,98.5917839 L42.8302082,98.6017388 L42.8261585,98.6043934 L42.8244711,98.6057207 C42.8153593,98.613021 42.8345953,98.5967613 42.8318956,98.5990842 L42.8244711,98.6053889 L42.7940984,98.6306079 L42.7336905,98.6810459 L42.6128746,98.7815901 C42.5474046,98.8462968 42.4799097,98.9043669 42.4134273,98.9727237 C42.3499821,99.0437351 42.2781,99.1091054 42.2200544,99.1854261 C42.1589715,99.2597558 42.0968763,99.33309 42.0428803,99.412729 C41.9848347,99.4897133 41.9328637,99.5703478 41.881905,99.6519777 C41.777288,99.8139103 41.6915695,99.9874569 41.6109131,100.163658 L41.3848052,100.656756 L41.0847904,100.244293 L41.063867,100.215755 L41.077366,100.192195 L41.0945772,100.173613 L41.0942397,100.172617 C41.117188,100.197836 41.0999768,100.179254 41.1050389,100.184563 L41.1016642,100.181245 L41.070954,100.183568 L41.0129084,100.134789 L40.9103162,100.025285 C40.8775812,99.9838067 40.8441712,99.9579241 40.8131235,99.9287231 L40.7189682,99.8407884 C40.6599101,99.7794001 40.5785788,99.7279666 40.509734,99.6702283 C40.4402143,99.6104991 40.3585455,99.5676931 40.2829512,99.5146005 C40.2070195,99.4621715 40.1209635,99.4266658 40.0403071,99.3808734 C39.9583008,99.3370719 39.8692076,99.3085346 39.7838265,99.271038 C39.6970956,99.2361959 39.60564,99.2152907 39.5158718,99.1857579 C39.4254287,99.1612025 39.3319483,99.1479294 39.2394803,99.125365 C39.1459999,99.1101009 39.0511696,99.1018051 38.9563392,99.0891956 C38.8611715,99.0842182 38.7656662,99.0838864 38.6691485,99.0805681 L38.3806079,99.1004778 L38.0930797,99.1462702 L37.8085887,99.2199363 L37.5308473,99.321476 L37.2601928,99.4479028 L37,99.5998805 L37.2264453,99.3981285 L37.4755015,99.2192726 C37.5629073,99.1665118 37.6543629,99.1187284 37.7451435,99.0676268 C37.8386239,99.0241572 37.9351416,98.9846695 38.0313218,98.942859 C38.1298644,98.9096761 38.2300943,98.8774887 38.3313366,98.8469604 L38.6418131,98.7842448 C38.7471051,98.7732944 38.8527346,98.7600212 38.9593765,98.7520573 C39.065681,98.7517255 39.1729978,98.7470799 39.2803147,98.7510619 C39.3869566,98.7603531 39.4949484,98.7666578 39.6012529,98.7839129 C39.7065449,98.8058136 39.8141992,98.8204141 39.9184788,98.8492832 C40.0214085,98.8818025 40.1283879,98.9056942 40.2292928,98.9461773 C40.3288477,98.9886514 40.4338023,99.0218344 40.5299825,99.0735997 C40.6251503,99.1256968 40.7277425,99.1685028 40.8178482,99.230223 C40.9079539,99.2939342 41.0017717,99.3453677 41.0888401,99.4206929 L41.2207926,99.5305283 C41.2653393,99.5676931 41.3102234,99.6051898 41.341946,99.6397 L41.5012339,99.7993098 L41.5140579,99.812583 L41.5177701,99.8159012 L41.5322815,99.8324927 L41.5386936,99.8401248 L41.5640041,99.8703212 L41.038219,99.9509557 C41.1148257,99.7412397 41.1995318,99.5325192 41.3068486,99.3340855 C41.3581447,99.2335413 41.414503,99.1359835 41.4776107,99.0417441 C41.5359938,98.94485 41.6041636,98.8542607 41.6716585,98.7633395 C41.7364536,98.6697637 41.8150851,98.5874701 41.8869672,98.4992036 C41.9618865,98.4122644 42.0496298,98.3286435 42.1319736,98.2443589 L42.2399654,98.1285506 L42.2892367,98.0658349 L42.3189344,98.0396204 L42.3260214,98.0329838 L42.3533568,98.0290019 L42.3749552,98.021038 L42.6513467,97.8166313 C42.7401025,97.7439607 42.8450571,97.6938545 42.9422497,97.632798 C43.0404547,97.5730688 43.1393348,97.5140032 43.2456392,97.4685426 C43.3502563,97.4207592 43.4535234,97.3683302 43.5601654,97.3255243 L43.8868406,97.209716 C43.9955074,97.1698965 44.1102487,97.1509822 44.2222902,97.1214494 L44.3910274,97.0816299 L44.5628019,97.0567428 C44.7912721,97.015596 45.0227795,97.0089594 45.2539495,97 C45.4851195,97.0109504 45.7169644,97.0162596 45.9450971,97.0587337 C46.059501,97.0743297 46.1735673,97.0922485 46.2852714,97.1234404 C46.3969754,97.1526414 46.5110417,97.1745421 46.620046,97.2127024 L46.9457088,97.3291744 C47.0530257,97.3713167 47.1552804,97.4247412 47.260235,97.4725246 C47.3662019,97.5179851 47.4647445,97.5773825 47.563287,97.6367799 C47.6604796,97.6981683 47.7627344,97.7509291 47.8521651,97.8235997 L48.1268693,98.0293337 L48.3894244,98.2699097 C48.4839172,98.3512079 48.5429753,98.4295195 48.6141824,98.5084948 L48.7174495,98.626626 L48.7434351,98.6564906 L48.7565966,98.6710911 L48.7694206,98.6863552 L48.771108,98.688678 L48.7741452,98.6926599 L48.7805573,98.7012875 L48.8308409,98.7699761 C48.9685305,98.9498274 49.0886714,99.1419565 49.1953133,99.3400584 C49.2442471,99.4415981 49.2952058,99.5418105 49.3414398,99.6440138 L49.463268,99.9569286 L49.0893464,99.7784046 L49.4085972,99.707725 C49.515914,99.692129 49.6245808,99.6808468 49.7322351,99.6679055 C49.840227,99.6619326 49.9492312,99.6606053 50.0568855,99.6602734 C50.1648773,99.6652509 50.2728692,99.6778604 50.3798486,99.6871516 C50.486153,99.7027475 50.591445,99.7253119 50.696737,99.744558 C50.8003417,99.7707725 50.9025964,99.8026281 51.0048512,99.831829 C51.1047436,99.8683302 51.2029487,99.9091452 51.3014912,99.9476374 C51.396659,99.9937616 51.4901394,100.043204 51.5826074,100.092647 L51.8455,100.264866 C51.9271688,100.330236 52.0095126,100.393616 52.0888191,100.460645 C52.1630634,100.532984 52.2386577,100.603332 52.3098648,100.677329 C52.3760098,100.755973 52.4428297,100.833953 52.5045875,100.914919 C52.5609458,101.000199 52.6200038,101.082493 52.6726498,101.168768 C52.7195588,101.258694 52.7701799,101.344969 52.8130392,101.435891 C52.8498239,101.530462 52.8886334,101.623042 52.9220434,101.715623 L53,102" id="Fill-18" fill="#C8C6C1"></path>
                            <path d="M82,102 L81.8666976,101.73651 C81.8164139,101.65222 81.7627555,101.57158 81.7121343,101.490609 C81.6554386,101.412624 81.5953682,101.33663 81.53766,101.260636 C81.4752273,101.187629 81.4073949,101.119599 81.3429373,101.049579 C81.2740925,100.98354 81.1998481,100.923475 81.1306659,100.85976 C81.0564215,100.800358 80.9788024,100.746267 80.9038831,100.68952 L80.6629263,100.543174 L80.4104955,100.421384 L80.1492902,100.323488 L79.8820105,100.249817 C79.7905549,100.23422 79.7007867,100.215637 79.6100061,100.202363 C79.5185505,100.195726 79.4277699,100.185107 79.3366518,100.181124 C79.2451963,100.183447 79.1544156,100.181788 79.0639725,100.186434 C78.9738668,100.198381 78.8834237,100.202695 78.7943304,100.214641 L78.529413,100.267737 L78.2715825,100.345059 L78.0198266,100.420389 L77.8979984,100.166191 L77.7721204,99.9046924 C77.7258864,99.8197385 77.6752652,99.7374394 77.6273439,99.653813 C77.5213769,99.4925334 77.4120352,99.3342404 77.2868322,99.1878941 L77.2412731,99.1318112 L77.243298,99.1182053 L77.2473477,99.1082498 L77.2459978,99.1065906 C77.2507224,99.1119002 77.2260868,99.0986261 77.2486976,99.1245105 L77.2314864,99.1135594 L77.2021261,99.0873432 L77.091772,98.9751775 C77.0188775,98.9018385 76.9432832,98.8178801 76.8737635,98.7671069 L76.6641919,98.5902303 L76.4269473,98.4272914 C76.3510156,98.3688856 76.2622598,98.3290635 76.1799161,98.2809451 C76.0965599,98.2334904 76.0142161,98.1850402 75.9244479,98.1501958 C75.8363671,98.1126966 75.7506486,98.0692241 75.6605429,98.0367027 L75.3875261,97.9461074 C75.2967455,97.9162408 75.2012402,97.9009756 75.1087722,97.8767505 C75.0163042,97.8502024 74.9214739,97.8369284 74.8263061,97.8249817 C74.6373205,97.7901374 74.44496,97.7894737 74.253612,97.77985 C74.0619266,97.7894737 73.8699036,97.7904692 73.6809179,97.824318 L73.5381662,97.8429017 L73.3984518,97.875755 C73.3059838,97.8999801 73.2104786,97.9139178 73.1200354,97.9457755 L72.8473561,98.0357072 C72.7579254,98.0692241 72.6722069,98.1120329 72.5837886,98.1495321 C72.4943578,98.1843765 72.4116766,98.2324949 72.3286579,98.2806133 C72.2473266,98.3307228 72.1572209,98.3678901 72.0816266,98.4272914 L71.8450571,98.5915577 L71.8302082,98.6018451 L71.826496,98.6044999 L71.8248086,98.6054955 C71.8156968,98.6127962 71.8349328,98.5968673 71.832233,98.5991903 L71.8248086,98.6054955 L71.7944359,98.6303843 L71.7336905,98.6808256 L71.6132121,98.7813765 C71.5477421,98.8460875 71.4802472,98.9041614 71.4137647,98.9725227 C71.3503195,99.0435389 71.2784375,99.1089135 71.2203919,99.1852393 C71.159309,99.2595739 71.0972137,99.332913 71.0432178,99.4125572 C70.9851722,99.4895467 70.9332012,99.5701865 70.8822425,99.6518219 C70.777288,99.814097 70.6915695,99.9873233 70.6109131,100.163536 L70.3851427,100.656999 L70.0851279,100.244176 L70.0642045,100.215637 L70.0777035,100.192075 L70.0949147,100.173492 L70.0942397,100.172496 C70.1175255,100.198049 70.1003143,100.179133 70.1053764,100.184443 L70.1020016,100.181124 L70.070954,100.183447 L70.0132459,100.134997 L69.9106536,100.025154 C69.8775812,99.9833411 69.8445087,99.9577885 69.813461,99.9289175 L69.7193056,99.8406451 C69.6602476,99.7792527 69.5789163,99.7278158 69.509734,99.6700737 C69.4402143,99.6103405 69.3585455,99.5675317 69.2829512,99.5144355 C69.2073569,99.4620031 69.121301,99.426495 69.0406446,99.3806995 C68.9586383,99.3368952 68.869545,99.308356 68.7838265,99.2708568 C68.6970956,99.2360125 68.60564,99.2151059 68.5162093,99.1855711 C68.4257662,99.1610141 68.3319483,99.1477401 68.2394803,99.1251742 C68.1463373,99.1095772 68.051507,99.1016128 67.9566767,99.0890025 C67.8615089,99.0840247 67.7660037,99.0836928 67.669486,99.0803743 L67.3809454,99.1002854 L67.0930797,99.1464127 L66.8089262,99.2197518 L66.5311847,99.3212982 L66.2605303,99.4477335 L66,99.5997212 L66.2267828,99.3979558 L66.4755015,99.2190881 C66.5632448,99.1663238 66.6547004,99.1185372 66.7451435,99.0674321 C66.8389614,99.0239596 66.9354791,98.9844694 67.0313218,98.9426561 C67.1302019,98.909471 67.2304318,98.8772815 67.3316741,98.8467512 L67.6421506,98.7840313 C67.7471051,98.7734121 67.8530721,98.7598062 67.959714,98.7518418 C68.065681,98.7515099 68.1733353,98.746864 68.2803147,98.7508462 C68.3872941,98.7601381 68.4952859,98.7664432 68.6015903,98.7836995 C68.7065449,98.8056016 68.8145367,98.8202031 68.9188163,98.8490741 C69.0214085,98.8815955 69.1287254,98.9054888 69.2292928,98.9459746 C69.3291852,98.9884516 69.4341398,99.0216367 69.53032,99.0734055 C69.6254878,99.1255061 69.72808,99.1683149 69.8178482,99.2300392 C69.9082913,99.2937546 70.0017717,99.3451915 70.0891776,99.4208535 L70.2211301,99.5303644 C70.2656767,99.5675317 70.3105608,99.6050309 70.3422834,99.6395434 L70.4485879,99.7460676 L70.5012339,99.7991637 L70.5143954,99.8124378 L70.5181076,99.8157563 L70.532619,99.8323488 L70.539031,99.8399814 L70.5643416,99.869848 L70.0385565,99.9511515 C70.1151631,99.7410898 70.1995318,99.5323555 70.3071861,99.3339085 C70.3584822,99.2336895 70.414503,99.1357935 70.4779482,99.0415478 C70.5363312,98.9446472 70.6041636,98.8540519 70.671996,98.7631247 C70.736791,98.6695427 70.8154226,98.5872436 70.8873046,98.4989713 C70.962224,98.4123581 71.0499673,98.3283998 71.1323111,98.2441096 L71.2403029,98.1282936 L71.2895741,98.0655738 L71.3189344,98.0393575 L71.3263589,98.0330524 L71.3533568,98.0284065 L71.3752927,98.0207739 L71.6516842,97.8166855 C71.74044,97.7436782 71.8453945,97.6935687 71.9422497,97.6325081 C72.0404547,97.5727749 72.1396722,97.5137054 72.2459767,97.4682419 C72.3505937,97.4204553 72.4538609,97.3680228 72.5605028,97.325214 L72.8871781,97.209398 C72.9958448,97.1695759 73.1105862,97.1506604 73.2222902,97.1211256 L73.3913649,97.0813035 L73.5628019,97.0564147 C73.7912721,97.015597 74.0227795,97.0086281 74.254287,97 C74.4851195,97.0106192 74.7173019,97.0159289 74.9450971,97.0584058 C75.0598384,97.0740028 75.1739048,97.0919227 75.2856088,97.1231167 C75.3973129,97.1523196 75.5113792,97.1742218 75.620046,97.2123847 L75.9460463,97.3288644 C76.0533631,97.3710095 76.1556179,97.4244375 76.2605724,97.4722241 C76.3662019,97.5176877 76.4650819,97.577089 76.563287,97.6364903 C76.6608171,97.6978828 76.7630719,97.750979 76.8525026,97.8233225 L77.1272068,98.0290702 L77.3897619,98.2696622 C77.4842547,98.3509657 77.5433127,98.4292825 77.6145198,98.5082631 L77.717787,98.6267339 L77.7437725,98.6562687 L77.756934,98.6708701 L77.7697581,98.6861353 L77.7714454,98.6884582 L77.7744827,98.6924404 L77.7808947,98.7010686 L77.8311784,98.7697617 C77.968868,98.949625 78.0890089,99.1417668 78.1956508,99.3398819 C78.2445846,99.4414283 78.2955432,99.5416473 78.3417772,99.6438574 L78.4636055,99.956793 L78.0896838,99.7782571 L78.4089346,99.7075728 C78.5162515,99.6919758 78.6245808,99.6806929 78.7322351,99.6677507 C78.8405644,99.6617774 78.9492312,99.6607818 79.057223,99.6601181 C79.1652148,99.6650959 79.2728692,99.6777062 79.3798486,99.6869981 C79.4864905,99.7025951 79.5917825,99.7251609 79.696737,99.7444083 C79.8006792,99.7706245 79.9029339,99.8024822 80.0051887,99.8316851 C80.1050811,99.8681888 80.2032862,99.9086746 80.3014912,99.9475012 C80.3969965,99.9936285 80.4904769,100.043074 80.5829449,100.09252 L80.8458375,100.264751 C80.9275063,100.330125 81.00985,100.393841 81.0888191,100.460543 C81.1630634,100.533218 81.2389952,100.603239 81.3098648,100.677242 C81.3763473,100.756222 81.4431672,100.833875 81.5045875,100.914847 C81.5612832,101.000133 81.6203413,101.082432 81.6726498,101.168713 C81.7198962,101.258645 81.7705174,101.344926 81.8133766,101.435853 C81.8501614,101.530431 81.8886334,101.623017 81.9223809,101.715604 L82,102" id="Fill-19" fill="#C8C6C1"></path>
                            <path d="M63,55.3357974 C63,60.3058912 55.9998321,67 55.9998321,67 C55.9998321,67 49,60.3058912 49,55.3357974 C49,50.3650281 52.1339776,49 55.9998321,49 C59.8656867,49 63,50.3650281 63,55.3357974" id="Fill-20" fill="#E4772B"></path>
                            <path d="M59,54.223666 C59,57.5372278 54.5001564,62 54.5001564,62 C54.5001564,62 50,57.5372278 50,54.223666 C50,50.9097779 52.0147667,50 54.5001564,50 C56.9852333,50 59,50.9097779 59,54.223666" id="Fill-21" fill="#E4AD2C"></path>
                            <path d="M57,52.4638633 C57,54.3968463 54.5,57 54.5,57 C54.5,57 52,54.3968463 52,52.4638633 C52,50.5305519 53.1193761,50 54.5,50 C55.8806239,50 57,50.5305519 57,52.4638633" id="Fill-22" fill="#F2C76B"></path>
                            <path d="M49,37 C49,37 40,42.2149892 40,53.5151704 C40,53.5151704 40.5623824,54.7566368 41.462069,53.2663928 C42.3623824,51.7764947 43.1498433,47.6791021 48.8874608,47.6791021 L49,37" id="Fill-23" fill="#D73753"></path>
                            <path d="M61,37 C61,37 70,42.2149892 70,53.5151704 C70,53.5151704 69.4370494,54.7566368 68.5374569,53.2663928 C67.636924,51.7764947 66.8498589,47.6791021 61.1125274,47.6791021 L61,37" id="Fill-24" fill="#AA3545"></path>
                            <path d="M66,26.2186209 C66,21.7990142 65.2201274,17.6388789 64.0592904,14 L55,14 L55,17.6927564 C58.351727,17.6927564 61.0685133,20.2950721 61.0685133,23.5052448 C61.0685133,26.7157481 58.351727,29.3183944 55,29.3183944 L55,48 L60.9284123,48 C63.9785425,43.4042173 66,35.366225 66,26.2186209" id="Fill-25" fill="#DEF0EF"></path>
                            <path d="M48.9312963,23.5052448 C48.9312963,20.2950721 51.6481679,17.6927564 55,17.6927564 L55,14 L45.9407705,14 C44.7792069,17.6388789 44,21.7990142 44,26.2186209 C44,35.366225 46.0215209,43.4042173 49.0710566,48 L55,48 L55,29.3183944 C51.6481679,29.3183944 48.9312963,26.7157481 48.9312963,23.5052448" id="Fill-26" fill="#DEF0EF"></path>
                            <path d="M50.2263374,49 C50.1014713,49 50,49.1340302 50,49.300168 L50,50.7002053 C50,50.8655964 50.1014713,51 50.2263374,51 L55,51 L55,49 L50.2263374,49" id="Fill-27" fill="#DEBF3C"></path>
                            <path d="M60.7726375,49 L56,49 L56,51 L60.7726375,51 C60.8981664,51 61,50.8655964 61,50.7002053 L61,49.300168 C61,49.1340302 60.8981664,49 60.7726375,49" id="Fill-28" fill="#C4A934"></path>
                            <path d="M58.4257364,23.4996873 C58.4257364,25.5810304 56.8918458,27.26831 55,27.26831 L55,29 C57.7615717,29 60,26.5374161 60,23.4996873 C60,20.4622711 57.7615717,18 55,18 L55,19.7313772 C56.8918458,19.7313772 58.4257364,21.4183441 58.4257364,23.4996873" id="Fill-29" fill="#C4A934"></path>
                            <path d="M50,23.4996873 C50,26.5374161 52.2384283,29 55,29 L55,27.26831 C53.1075856,27.26831 51.5739793,25.5810304 51.5739793,23.4996873 C51.5739793,21.4183441 53.1075856,19.7313772 55,19.7313772 L55,18 C52.2384283,18 50,20.4622711 50,23.4996873" id="Fill-30" fill="#DEBF3C"></path>
                            <path d="M59,22.999834 C59,20.7906137 57.20898,19 55,19 L55,27 C57.20898,27 59,25.2090543 59,22.999834" id="Fill-31" fill="#82C9C3"></path>
                            <path d="M51,22.999834 C51,25.2090543 52.7905394,27 55,27 L55,19 C52.7905394,19 51,20.7906137 51,22.999834" id="Fill-32" fill="#A5D7D6"></path>
                            <path d="M55,0 L55,14 L64,14 C61.4264655,5.6665592 56.9657182,0 55,0" id="Fill-33" fill="#AA3545"></path>
                            <path d="M56,0 C54.0342069,0 49.5732897,5.6665592 47,14 L56,14 L56,0" id="Fill-34" fill="#D73753"></path>
                            <path d="M55.2498303,40.0141999 C55.2301426,40.0054863 55.2093234,40 55.187599,40 L55,40 L55,53 L55.2102286,53 C55.3245078,53 55.4175153,52.8676828 55.4175153,52.7050295 L55.4175153,52.3096917 L55.4252093,51.739437 L56,41.2860583 C56,40.2262301 55.3770084,40.0597041 55.2498303,40.0141999" id="Fill-35" fill="#AA3545"></path>
                            <path d="M54.7955214,40 L54.7898665,40 C54.768152,40 54.7473422,40.0054863 54.7274372,40.0141999 C54.6910201,40.0271089 54.6503054,40.0500223 54.6102692,40.083263 C54.3843022,40.1881486 54,40.4695646 54,41.3012264 L54.5752092,51.765255 L54.5828998,52.2945236 L54.5828998,52.689216 C54.5828998,52.8134651 54.6360552,52.9193188 54.7122823,52.9632094 C54.7421398,52.9867683 54.776295,53 54.8122597,53 L55,53 L55,40 L54.7955214,40" id="Fill-36" fill="#D73753"></path>
                        </g>
                    </g>
                </g>
                <path d="M25.6176664,102 L12.3823336,102 C11.0665595,102 10,103.007297 10,104.249961 L10,110 L28,110 L28,104.249961 C28,103.007297 26.9334405,102 25.6176664,102" id="Fill-231" fill="#676B6C"></path>
                <path d="M45.6176664,102 L32.3823336,102 C31.0665595,102 30,103.007297 30,104.249961 L30,110 L48,110 L48,104.249961 C48,103.007297 46.9334405,102 45.6176664,102" id="Fill-232" fill="#676B6C"></path>
                <path d="M64.6175794,102 L51.3817631,102 C50.0665985,102 49,103.007297 49,104.249961 L49,110 L67,110 L67,104.249961 C67,103.007297 65.9334015,102 64.6175794,102" id="Fill-233" fill="#676B6C"></path>
                <path d="M130.672943,102 L73.3289856,102 C72.0426758,102 71,103.007297 71,104.249961 L71,110 L133,110 L133,104.249961 C133,103.007297 131.95861,102 130.672943,102" id="Fill-234" fill="#676B6C"></path>
                <path d="M153.619291,102 L140.380709,102 C139.0654,102 138,103.007297 138,104.249961 L138,110 L156,110 L156,104.249961 C156,103.007297 154.9346,102 153.619291,102" id="Fill-235" fill="#676B6C"></path>
                <path d="M173.619291,102 L160.380709,102 C159.0654,102 158,103.007297 158,104.249961 L158,110 L176,110 L176,104.249961 C176,103.007297 174.9346,102 173.619291,102" id="Fill-236" fill="#676B6C"></path>
                <path d="M192.619291,102 L179.380709,102 C178.0654,102 177,103.007297 177,104.249961 L177,110 L195,110 L195,104.249961 C195,103.007297 193.9346,102 192.619291,102" id="Fill-237" fill="#676B6C"></path>
                <path d="M205,118 L0,118 L0,109.468561 C0,107.000828 1.90266205,105 4.24932122,105 L200.751958,105 C203.099897,105 205,107.000828 205,109.468561 L205,118" id="Fill-238" fill="#E0E1E2"></path>
            </g>
        </g>
    </g>
</svg>